<?xml version="1.0" encoding="UTF-8"?>
<svg version="1.1" xmlns="http://www.w3.org/2000/svg" width="148" height="991">
<path d="M0 0 C2.27864583 0.06510417 4.55729167 0.13020833 6.8359375 0.1953125 C7.1659375 3.1653125 7.4959375 6.1353125 7.8359375 9.1953125 C8.4959375 9.1953125 9.1559375 9.1953125 9.8359375 9.1953125 C11.0703125 10.453125 11.0703125 10.453125 12.5859375 12.3203125 C16.15197468 16.51565036 19.94667934 20.42796926 23.8359375 24.3203125 C24.41698242 24.90570801 24.99802734 25.49110352 25.59667969 26.09423828 C29.09716524 29.5839138 32.69778526 32.8309247 36.55078125 35.92919922 C37.18693359 36.55592529 37.18693359 36.55592529 37.8359375 37.1953125 C37.8359375 37.8553125 37.8359375 38.5153125 37.8359375 39.1953125 C38.4134375 39.4428125 38.9909375 39.6903125 39.5859375 39.9453125 C42.16533729 41.37831238 43.89715342 42.97955926 45.8359375 45.1953125 C45.8359375 45.8553125 45.8359375 46.5153125 45.8359375 47.1953125 C46.3928125 47.4221875 46.9496875 47.6490625 47.5234375 47.8828125 C51.35092561 50.05517062 54.04614311 53.1685798 56.7109375 56.6328125 C58.96751034 59.35397386 61.39810954 61.46400218 64.1015625 63.72265625 C67.3679704 66.49616026 70.25264254 69.4529371 72.8984375 72.8203125 C74.72357358 75.25202548 74.72357358 75.25202548 77.0859375 76.8828125 C77.6634375 77.3159375 78.2409375 77.7490625 78.8359375 78.1953125 C78.8359375 78.8553125 78.8359375 79.5153125 78.8359375 80.1953125 C80.3209375 80.6903125 80.3209375 80.6903125 81.8359375 81.1953125 C81.8359375 81.8553125 81.8359375 82.5153125 81.8359375 83.1953125 C82.733125 83.5975 82.733125 83.5975 83.6484375 84.0078125 C85.83441604 85.19448656 87.24926344 86.29130363 88.8359375 88.1953125 C88.8359375 88.8553125 88.8359375 89.5153125 88.8359375 90.1953125 C89.4959375 90.1953125 90.1559375 90.1953125 90.8359375 90.1953125 C91.4959375 91.8453125 92.1559375 93.4953125 92.8359375 95.1953125 C93.4959375 95.1953125 94.1559375 95.1953125 94.8359375 95.1953125 C97.4609375 97.5703125 97.4609375 97.5703125 99.8359375 100.1953125 C99.8359375 100.8553125 99.8359375 101.5153125 99.8359375 102.1953125 C101.8159375 103.1853125 101.8159375 103.1853125 103.8359375 104.1953125 C103.96760409 127.79040654 104.09804215 151.3855071 104.22708893 174.98061562 C104.28705943 185.94069356 104.34740495 196.90076918 104.40869141 207.86083984 C104.46222058 217.43382899 104.51498702 227.00682201 104.56690454 236.57982004 C104.59431961 241.63025939 104.62207085 246.6806963 104.65074158 251.73112869 C104.70823682 261.89842081 104.76026422 272.06568987 104.79950762 282.23307025 C104.82155101 287.66909175 104.85636832 293.10488007 104.8992753 298.54077542 C104.92565728 302.10865778 104.94389211 305.67655134 104.96025753 309.24449229 C104.96973642 310.9208991 104.98271326 312.59729022 104.9993906 314.27364087 C105.02176793 316.56605952 105.03184755 318.85821696 105.03894043 321.15072632 C105.04802177 322.44442327 105.05710312 323.73812023 105.06645966 325.07102013 C104.8359375 328.1953125 104.8359375 328.1953125 102.8359375 331.1953125 C102.1759375 331.1953125 101.5159375 331.1953125 100.8359375 331.1953125 C100.8359375 332.1853125 100.8359375 333.1753125 100.8359375 334.1953125 C100.0521875 334.4428125 99.2684375 334.6903125 98.4609375 334.9453125 C95.42655751 336.39025535 95.16564025 337.25097069 93.8359375 340.1953125 C92.8459375 340.5253125 91.8559375 340.8553125 90.8359375 341.1953125 C90.15107025 342.51938919 89.48723547 343.85440491 88.8359375 345.1953125 C86.8359375 347.4453125 86.8359375 347.4453125 84.8359375 349.1953125 C84.1759375 349.1953125 83.5159375 349.1953125 82.8359375 349.1953125 C82.5059375 350.1853125 82.1759375 351.1753125 81.8359375 352.1953125 C81.1759375 352.1953125 80.5159375 352.1953125 79.8359375 352.1953125 C77.79055575 356.14971721 76.71067375 359.302992 76.71454048 363.7699728 C76.71294933 364.71399596 76.71135819 365.65801911 76.70971882 366.63064903 C76.71480861 368.18928259 76.71480861 368.18928259 76.72000122 369.77940369 C76.71970252 370.88170384 76.71940382 371.98400398 76.71909606 373.11970717 C76.71945336 376.83234765 76.72713763 380.54493641 76.73486328 384.25756836 C76.73682131 386.911586 76.73841033 389.56560188 76.73963928 392.21961975 C76.74472781 400.19622694 76.75979816 408.17280316 76.77656776 416.14939317 C76.78123198 418.40145566 76.78562666 420.6535185 76.78992224 422.90558171 C76.81659229 436.88551589 76.84639404 450.86543926 76.88589668 464.84534359 C76.8949975 468.08301216 76.90406758 471.32068081 76.91308594 474.55834961 C76.9153305 475.36306985 76.91757507 476.16779009 76.91988765 476.9968958 C76.95571059 490.04345832 76.97097937 503.08996141 76.97784342 516.136568 C76.9852351 529.5251391 77.01134991 542.91357139 77.05579174 556.30207163 C77.08027487 563.821823 77.09640741 571.34139407 77.09152603 578.86118889 C77.08741721 585.26282477 77.1001393 591.66414333 77.13508721 598.06569021 C77.15240074 601.33314837 77.15885914 604.59999895 77.14907646 607.86750412 C77.13976535 611.40695238 77.16091883 614.94492737 77.18997192 618.48423767 C77.17998078 619.52109599 77.16998965 620.5579543 77.15969574 621.62623256 C77.13135521 627.27497673 77.13135521 627.27497673 80.27425957 631.75513554 C81.11961329 632.23039393 81.964967 632.70565233 82.8359375 633.1953125 C83.91227795 634.35147725 84.9556498 635.5393617 85.9609375 636.7578125 C90.60854334 642.20921713 95.73307619 647.17549956 100.8359375 652.1953125 C101.4959375 651.8653125 102.1559375 651.5353125 102.8359375 651.1953125 C104.89555238 655.41824969 105.09506848 659.17015824 105.0246582 663.77661133 C105.02136946 664.56300932 105.01808071 665.34940731 105.01469231 666.15963554 C105.00629066 667.92691674 104.9932707 669.69418005 104.97643089 671.46140099 C104.92676888 676.71454363 104.91113493 681.96787297 104.88916016 687.22119141 C104.88315261 688.42854163 104.87714506 689.63589186 104.87095547 690.87982845 C104.82353017 701.73845928 104.86094447 712.59602242 104.91162109 723.45458984 C104.99228974 740.85753552 105.02355472 758.25998158 105.01469231 775.66311455 C105.01099156 785.85882822 105.02878774 796.05373729 105.09301758 806.24926758 C105.1498755 815.28606368 105.16799862 824.32197742 105.1399439 833.35892326 C105.12653821 838.10110521 105.13169693 842.84149196 105.18416405 847.58344078 C105.23262876 852.01153827 105.22905343 856.43662415 105.18652344 860.86475372 C105.17997855 862.47718466 105.19189782 864.08982361 105.22457314 865.70193672 C105.38359441 874.08270478 104.80858453 880.41181013 98.81015015 886.68920898 C96.86623444 888.58763204 94.86601614 890.38541099 92.8359375 892.1953125 C91.3275788 893.71481142 89.82740542 895.24250344 88.33763123 896.78022766 C86.86380149 898.24206388 85.38716155 899.70107138 83.90795898 901.1574707 C83.09026535 901.9672789 82.27257172 902.7770871 81.43009949 903.61143494 C79.68031278 905.34421206 77.92944971 907.07590285 76.17757988 908.80657387 C72.92746865 912.01961652 69.68475698 915.24005604 66.44251436 918.46103555 C65.968557 918.93188205 65.49459965 919.40272855 65.00627995 919.88784313 C64.52932214 920.36168481 64.05236433 920.83552649 63.56095326 921.32372701 C57.1388939 927.70301655 50.71202897 934.07736159 44.27124023 940.43774414 C39.4297431 945.21891066 34.60149404 950.01315034 29.78065681 954.81514549 C27.94753477 956.63653151 26.10988794 958.45337545 24.26763725 960.26552773 C21.69990329 962.79230686 19.14808594 965.33419091 16.59936523 967.88012695 C15.45788025 968.9922908 15.45788025 968.9922908 14.29333496 970.12692261 C10.05284731 974.40059462 8.0826741 977.31595209 6.8359375 983.1953125 C4.5234375 985.2578125 4.5234375 985.2578125 1.8359375 986.1953125 C-1.33841684 985.38326837 -2.84586825 984.51350675 -5.1640625 982.1953125 C-5.6015625 979.3203125 -5.6015625 979.3203125 -5.1640625 976.1953125 C-2.83674828 973.80150359 -0.90187952 972.45927613 2.24023438 971.33514404 C5.21693542 970.02800776 6.89104221 968.50824232 9.1796875 966.20800781 C10.00404297 965.38665344 10.82839844 964.56529907 11.67773438 963.71905518 C12.55494141 962.82950134 13.43214844 961.93994751 14.3359375 961.0234375 C15.24923828 960.10826355 16.16253906 959.1930896 17.10351562 958.25018311 C19.03456252 956.31454218 20.96060895 954.37411008 22.8828125 952.4296875 C25.33373026 949.95056795 27.79316466 947.48012999 30.25598145 945.01283646 C32.61912679 942.64450519 34.97756842 940.27152558 37.3359375 937.8984375 C38.21314453 937.01698059 39.09035156 936.13552368 39.99414062 935.22735596 C44.15072174 931.0223315 48.13206966 926.80390141 51.8359375 922.1953125 C54.0234375 919.8203125 54.0234375 919.8203125 55.8359375 918.1953125 C56.4959375 918.1953125 57.1559375 918.1953125 57.8359375 918.1953125 C57.8359375 917.5353125 57.8359375 916.8753125 57.8359375 916.1953125 C59.33984375 914.71484375 59.33984375 914.71484375 61.3984375 913.0078125 C68.4937914 907.34435394 68.4937914 907.34435394 73.8359375 900.1953125 C74.4959375 900.1953125 75.1559375 900.1953125 75.8359375 900.1953125 C75.8359375 899.5353125 75.8359375 898.8753125 75.8359375 898.1953125 C77.54533779 896.59302867 79.36895278 895.18236508 81.20703125 893.73046875 C83.10152008 892.18774364 83.10152008 892.18774364 83.8359375 889.1953125 C85.5078125 887.546875 85.5078125 887.546875 87.5859375 885.8203125 C90.07710096 883.71755624 92.46362278 881.6195115 94.7109375 879.2578125 C96.8359375 877.1953125 96.8359375 877.1953125 98.8359375 877.1953125 C98.72870895 849.67481422 98.61594939 822.15434342 98.49659824 794.63389492 C98.44131103 781.85579271 98.38783642 769.07768771 98.33862305 756.29956055 C98.29572608 745.16266272 98.24943417 734.02578507 98.19905895 722.88891846 C98.17250245 716.99160499 98.1476505 711.09429541 98.12686348 705.19695854 C98.10724378 699.6460056 98.08308412 694.09509092 98.05544662 688.54417229 C98.04610441 686.50723467 98.03841904 684.47028866 98.03251839 682.43333817 C98.02420899 679.65066166 98.00991901 676.8680768 97.99415588 674.08543396 C97.99317778 673.28094281 97.99219967 672.47645166 97.99119192 671.64758199 C97.98571748 670.89516479 97.98024304 670.14274759 97.9746027 669.36752987 C97.97061564 668.40550841 97.97061564 668.40550841 97.96654803 667.42405218 C97.92344655 666.68856808 97.88034508 665.95308399 97.8359375 665.1953125 C97.78968554 664.06479001 97.74343358 662.93426753 97.69578004 661.76948678 C96.61381803 657.27201126 94.44957478 655.53731345 90.93979168 652.83630657 C68.41599711 634.04286524 68.41599711 634.04286524 66.82081378 619.01493609 C66.36820163 612.21506119 66.46271666 605.44630411 66.70216572 598.6405803 C66.82088942 594.38961636 66.77916491 590.13944296 66.75880432 585.88728333 C66.74477347 578.5529175 66.82807061 571.22512982 66.98122597 563.89241982 C67.20247963 553.29231514 67.27115135 542.69532859 67.30490174 532.09316578 C67.36371897 514.8859175 67.54262548 497.6821625 67.79907227 480.47680664 C68.04763792 463.78264615 68.23838788 447.0894409 68.3527832 430.39379883 C68.35987674 429.3614179 68.36697027 428.32903697 68.37427876 427.26537178 C68.40951966 422.08522804 68.44363861 416.90507764 68.47720015 411.72492278 C68.75623794 368.87930228 69.23101502 326.03748929 69.8359375 283.1953125 C70.4959375 283.1953125 71.1559375 283.1953125 71.8359375 283.1953125 C71.8359375 282.5353125 71.8359375 281.8753125 71.8359375 281.1953125 C76.13826308 276.42787064 76.13826308 276.42787064 79.8359375 275.1953125 C80.1659375 274.2053125 80.4959375 273.2153125 80.8359375 272.1953125 C81.4959375 272.1953125 82.1559375 272.1953125 82.8359375 272.1953125 C83.1040625 271.5559375 83.3721875 270.9165625 83.6484375 270.2578125 C84.8359375 268.1953125 84.8359375 268.1953125 87.8359375 267.1953125 C87.8359375 266.5353125 87.8359375 265.8753125 87.8359375 265.1953125 C89.4581829 263.48537816 91.13007175 261.82183566 92.8359375 260.1953125 C93.3928125 259.5971875 93.9496875 258.9990625 94.5234375 258.3828125 C95.8359375 257.1953125 95.8359375 257.1953125 97.8359375 257.1953125 C98.14033301 237.86273187 98.36920786 218.5306409 98.50949574 199.1961565 C98.57638167 190.21760006 98.667476 181.24053694 98.81665039 172.26293945 C98.94669094 164.43308442 99.03020155 156.60431118 99.05908793 148.77340621 C99.07596209 144.63063791 99.11527451 140.49096277 99.21042824 136.34919167 C100.54418762 117.21564211 100.54418762 117.21564211 93.34015179 100.48509502 C90.66788871 98.05975595 87.86601067 96.16211821 84.8359375 94.1953125 C83.13025562 92.56859651 81.45462954 90.90861097 79.8359375 89.1953125 C79.1452417 88.49937988 78.4545459 87.80344727 77.74291992 87.08642578 C76.72742065 86.06137939 76.72742065 86.06137939 75.69140625 85.015625 C74.13547851 83.45045935 72.5794873 81.8853568 71.0234375 80.3203125 C69.87004883 79.15435547 69.87004883 79.15435547 68.69335938 77.96484375 C67.92958984 77.19785156 67.16582031 76.43085937 66.37890625 75.640625 C65.69852295 74.95500488 65.01813965 74.26938477 64.31713867 73.56298828 C62.34280558 71.67898923 60.34243833 69.9092496 58.26904297 68.1394043 C53.24017975 63.76654957 48.60435575 59.01380048 43.94425774 54.25653648 C41.77036852 52.03998183 39.58661613 49.83324842 37.40351963 47.62576771 C33.35641648 43.53320201 29.313498 39.43669177 25.28686523 35.32397461 C22.46801548 32.44562398 19.63700827 29.57973387 16.79767036 26.72159767 C15.72426301 25.63649103 14.65539237 24.54687601 13.59132195 23.45261192 C12.10351083 21.92361478 10.60064577 20.41103798 9.09350586 18.90112305 C8.24493515 18.03843307 7.39636444 17.1757431 6.52207947 16.28691101 C3.39902688 13.85510651 0.62155394 13.22128565 -3.1640625 12.1953125 C-5.1640625 9.1953125 -5.1640625 9.1953125 -4.9140625 5.6328125 C-3.7591077 0.33926965 -3.7591077 0.33926965 0 0 Z " fill="#85AFCE" transform="translate(25.1640625,2.8046875)"/>
<path d="M0 0 C0.33 0 0.66 0 1 0 C1.00021737 0.56979293 1.00043474 1.13958585 1.00065869 1.72664523 C1.0141676 35.47948575 1.05361454 69.23218841 1.12685562 102.98495166 C1.13562262 107.0355403 1.14417238 111.08612937 1.15258789 115.13671875 C1.15426695 115.9431355 1.15594602 116.74955224 1.15767596 117.58040586 C1.18436302 130.64656004 1.19344226 143.71267035 1.19604143 156.77884898 C1.19909832 170.18087684 1.22101437 183.58277764 1.26052457 196.98474813 C1.28431765 205.25794111 1.2933103 213.53088064 1.28351311 221.80410317 C1.27820705 227.47344563 1.29118032 233.14256047 1.3186629 238.81183812 C1.33398769 242.08535922 1.33841844 245.35826548 1.32659721 248.63181686 C1.31505557 252.17797805 1.33397309 255.72268991 1.36076355 259.26873779 C1.35009029 260.30764247 1.33941703 261.34654714 1.32842034 262.41693377 C1.29505468 268.07338311 1.29505468 268.07338311 4.4379015 272.56108475 C5.283394 273.03592678 6.12888651 273.51076881 7 274 C8.07634045 275.15616475 9.1197123 276.3440492 10.125 277.5625 C14.77260584 283.01390463 19.89713869 287.98018706 25 293 C25.66 292.67 26.32 292.34 27 292 C29.05961488 296.22293719 29.25913098 299.97484574 29.1887207 304.58129883 C29.18543196 305.36769682 29.18214321 306.15409481 29.17875481 306.96432304 C29.17035316 308.73160424 29.1573332 310.49886755 29.14049339 312.26608849 C29.09083138 317.51923113 29.07519743 322.77256047 29.05322266 328.02587891 C29.04721511 329.23322913 29.04120756 330.44057936 29.03501797 331.68451595 C28.98759267 342.54314678 29.02500697 353.40070992 29.07568359 364.25927734 C29.15635224 381.66222302 29.18761722 399.06466908 29.17875481 416.46780205 C29.17505406 426.66351572 29.19285024 436.85842479 29.25708008 447.05395508 C29.313938 456.09075118 29.33206112 465.12666492 29.3040064 474.16361076 C29.29060071 478.90579271 29.29575943 483.64617946 29.34822655 488.38812828 C29.39669126 492.81622577 29.39311593 497.24131165 29.35058594 501.66944122 C29.34404105 503.28187216 29.35596032 504.89451111 29.38863564 506.50662422 C29.54765691 514.88739228 28.97264703 521.21649763 22.97421265 527.49389648 C21.03029694 529.39231954 19.03007864 531.19009849 17 533 C15.4916413 534.51949892 13.99146792 536.04719094 12.50169373 537.58491516 C11.02786399 539.04675138 9.55122405 540.50575888 8.07202148 541.9621582 C7.25432785 542.7719664 6.43663422 543.5817746 5.59416199 544.41612244 C3.84437528 546.14889956 2.09351221 547.88059035 0.34164238 549.61126137 C-2.90846885 552.82430402 -6.15118052 556.04474354 -9.39342314 559.26572305 C-9.8673805 559.73656955 -10.34133785 560.20741605 -10.82965755 560.69253063 C-11.30661536 561.16637231 -11.78357317 561.64021399 -12.27498424 562.12841451 C-18.6970436 568.50770405 -25.12390853 574.88204909 -31.56469727 581.24243164 C-36.4061944 586.02359816 -41.23444346 590.81783784 -46.05528069 595.61983299 C-47.88840273 597.44121901 -49.72604956 599.25806295 -51.56830025 601.07021523 C-54.13603421 603.59699436 -56.68785156 606.13887841 -59.23657227 608.68481445 C-60.37805725 609.7969783 -60.37805725 609.7969783 -61.54260254 610.93161011 C-65.78309019 615.20528212 -67.7532634 618.12063959 -69 624 C-71.3125 626.0625 -71.3125 626.0625 -74 627 C-77.17435434 626.18795587 -78.68180575 625.31819425 -81 623 C-81.4375 620.125 -81.4375 620.125 -81 617 C-78.67268578 614.60619109 -76.73781702 613.26396363 -73.59570312 612.13983154 C-70.61900208 610.83269526 -68.94489529 609.31292982 -66.65625 607.01269531 C-65.83189453 606.19134094 -65.00753906 605.36998657 -64.15820312 604.52374268 C-63.28099609 603.63418884 -62.40378906 602.74463501 -61.5 601.828125 C-60.58669922 600.91295105 -59.67339844 599.9977771 -58.73242188 599.05487061 C-56.80137498 597.11922968 -54.87532855 595.17879758 -52.953125 593.234375 C-50.50220724 590.75525545 -48.04277284 588.28481749 -45.57995605 585.81752396 C-43.21681071 583.44919269 -40.85836908 581.07621308 -38.5 578.703125 C-37.62279297 577.82166809 -36.74558594 576.94021118 -35.84179688 576.03204346 C-31.68521576 571.827019 -27.70386784 567.60858891 -24 563 C-21.8125 560.625 -21.8125 560.625 -20 559 C-19.34 559 -18.68 559 -18 559 C-18 558.34 -18 557.68 -18 557 C-16.49609375 555.51953125 -16.49609375 555.51953125 -14.4375 553.8125 C-7.3421461 548.14904144 -7.3421461 548.14904144 -2 541 C-1.34 541 -0.68 541 0 541 C0 540.34 0 539.68 0 539 C1.70940029 537.39771617 3.53301528 535.98705258 5.37109375 534.53515625 C7.26558258 532.99243114 7.26558258 532.99243114 8 530 C9.671875 528.3515625 9.671875 528.3515625 11.75 526.625 C14.24116346 524.52224374 16.62768528 522.424199 18.875 520.0625 C21 518 21 518 23 518 C22.89277145 490.47950172 22.78001189 462.95903092 22.66066074 435.43858242 C22.60537353 422.66048021 22.55189892 409.88237521 22.50268555 397.10424805 C22.45978858 385.96735022 22.41349667 374.83047257 22.36312145 363.69360596 C22.33656495 357.79629249 22.311713 351.89898291 22.29092598 346.00164604 C22.27130628 340.4506931 22.24714662 334.89977842 22.21950912 329.34885979 C22.21016691 327.31192217 22.20248154 325.27497616 22.19658089 323.23802567 C22.18827149 320.45534916 22.17398151 317.6727643 22.15821838 314.89012146 C22.15724028 314.08563031 22.15626217 313.28113916 22.15525442 312.45226949 C22.2730229 302.73104275 22.2730229 302.73104275 17.37998962 294.70021057 C16.63308617 293.99975868 16.63308617 293.99975868 15.87109375 293.28515625 C15.36199966 292.78455185 14.85290558 292.28394745 14.3283844 291.76817322 C12.71170934 290.18487384 11.0753934 288.62380906 9.4375 287.0625 C8.33261455 285.98773454 7.22908308 284.9115753 6.12695312 283.83398438 C3.4333667 281.20627097 0.72197001 278.59828734 -2 276 C-1.34 275.67 -0.68 275.34 0 275 C0 184.25 0 93.5 0 0 Z " fill="#8CB1CC" transform="translate(101,362)"/>
<path d="M0 0 C1.65 0.33 3.3 0.66 5 1 C5 32.02 5 63.04 5 95 C3.68 95 2.36 95 1 95 C1 93.02 1 91.04 1 89 C0.34 89 -0.32 89 -1 89 C-1 90.98 -1 92.96 -1 95 C-3.64 95 -6.28 95 -9 95 C-9 90.38 -9 85.76 -9 81 C-4 80 -4 80 -2 81 C-2 78.36 -2 75.72 -2 73 C-2.66 73 -3.32 73 -4 73 C-4 70.36 -4 67.72 -4 65 C-4.99 65 -5.98 65 -7 65 C-7 54.44 -7 43.88 -7 33 C-6.01 33 -5.02 33 -4 33 C-4 30.36 -4 27.72 -4 25 C-3.34 25 -2.68 25 -2 25 C-2 22.36 -2 19.72 -2 17 C-2.969375 17.185625 -3.93875 17.37125 -4.9375 17.5625 C-5.948125 17.706875 -6.95875 17.85125 -8 18 C-9.75559942 16.24440058 -9.13221919 13.96417558 -9.13671875 11.62890625 C-9.13285156 10.92636719 -9.12898438 10.22382813 -9.125 9.5 C-9.12886719 8.79746094 -9.13273437 8.09492188 -9.13671875 7.37109375 C-9.12661378 2.12661378 -9.12661378 2.12661378 -8 1 C-5.69 1 -3.38 1 -1 1 C-1 6.28 -1 11.56 -1 17 C-0.34 17 0.32 17 1 17 C0.67 11.39 0.34 5.78 0 0 Z " fill="#457CA5" transform="translate(115,453)"/>
<path d="M0 0 C0.99 1.98 0.99 1.98 2 4 C0.35 4.66 -1.3 5.32 -3 6 C-2.01 5.67 -1.02 5.34 0 5 C1.99673484 4.64763503 3.99650739 4.31165441 6 4 C1.42464173 9.49908169 -3.45022321 14.55923218 -8.54394531 19.578125 C-9.38041595 20.40671021 -10.2168866 21.23529541 -11.07870483 22.08898926 C-12.88484027 23.87799992 -14.69200648 25.66597043 -16.50009918 27.45300293 C-19.36136964 30.28287988 -22.21792132 33.1174274 -25.07244873 35.95410156 C-26.05325687 36.92865003 -27.03406512 37.90319837 -28.0148735 38.87774658 C-28.50565053 39.36540749 -28.99642756 39.85306839 -29.50207663 40.3555069 C-36.13877987 46.94932071 -42.78002452 53.5384594 -49.43554688 60.11328125 C-53.93936898 64.56258819 -58.43420773 69.02075927 -62.91901088 73.48923874 C-65.28780333 75.84867683 -67.66216288 78.20177586 -70.04508209 80.54699707 C-72.69957583 83.16052827 -75.33815891 85.78918495 -77.97363281 88.421875 C-78.7611795 89.18987427 -79.5487262 89.95787354 -80.36013794 90.74914551 C-84.6636483 95.0852047 -86.75796411 98.02483216 -88 104 C-90.3125 106.0625 -90.3125 106.0625 -93 107 C-96.17435434 106.18795587 -97.68180575 105.31819425 -100 103 C-100.4375 100.125 -100.4375 100.125 -100 97 C-97.67268578 94.60619109 -95.73781702 93.26396363 -92.59570312 92.13983154 C-89.61900208 90.83269526 -87.94489529 89.31292982 -85.65625 87.01269531 C-84.83189453 86.19134094 -84.00753906 85.36998657 -83.15820312 84.52374268 C-82.28099609 83.63418884 -81.40378906 82.74463501 -80.5 81.828125 C-79.58669922 80.91295105 -78.67339844 79.9977771 -77.73242188 79.05487061 C-75.80137498 77.11922968 -73.87532855 75.17879758 -71.953125 73.234375 C-69.50220724 70.75525545 -67.04277284 68.28481749 -64.57995605 65.81752396 C-62.21681071 63.44919269 -59.85836908 61.07621308 -57.5 58.703125 C-56.62279297 57.82166809 -55.74558594 56.94021118 -54.84179688 56.03204346 C-50.68521576 51.827019 -46.70386784 47.60858891 -43 43 C-40.8125 40.625 -40.8125 40.625 -39 39 C-38.34 39 -37.68 39 -37 39 C-37 38.34 -37 37.68 -37 37 C-35.49609375 35.51953125 -35.49609375 35.51953125 -33.4375 33.8125 C-26.3421461 28.14904144 -26.3421461 28.14904144 -21 21 C-20.34 21 -19.68 21 -19 21 C-19 20.34 -19 19.68 -19 19 C-17.29059971 17.39771617 -15.46698472 15.98705258 -13.62890625 14.53515625 C-11.73441742 12.99243114 -11.73441742 12.99243114 -11 10 C-9.2578125 8.28125 -9.2578125 8.28125 -7.125 6.5 C-4.64584653 4.41421775 -2.2560424 2.32698713 0 0 Z " fill="#8696A5" transform="translate(120,882)"/>
<path d="M0 0 C2.27864583 0.06510417 4.55729167 0.13020833 6.8359375 0.1953125 C7.1659375 3.1653125 7.4959375 6.1353125 7.8359375 9.1953125 C8.4959375 9.1953125 9.1559375 9.1953125 9.8359375 9.1953125 C11.0703125 10.453125 11.0703125 10.453125 12.5859375 12.3203125 C16.15197468 16.51565036 19.94667934 20.42796926 23.8359375 24.3203125 C24.41698242 24.90570801 24.99802734 25.49110352 25.59667969 26.09423828 C29.09716524 29.5839138 32.69778526 32.8309247 36.55078125 35.92919922 C37.18693359 36.55592529 37.18693359 36.55592529 37.8359375 37.1953125 C37.8359375 37.8553125 37.8359375 38.5153125 37.8359375 39.1953125 C38.4134375 39.4428125 38.9909375 39.6903125 39.5859375 39.9453125 C42.16533729 41.37831238 43.89715342 42.97955926 45.8359375 45.1953125 C45.8359375 45.8553125 45.8359375 46.5153125 45.8359375 47.1953125 C46.3928125 47.4221875 46.9496875 47.6490625 47.5234375 47.8828125 C51.35092561 50.05517062 54.04614311 53.1685798 56.7109375 56.6328125 C58.96751034 59.35397386 61.39810954 61.46400218 64.1015625 63.72265625 C67.3679704 66.49616026 70.25264254 69.4529371 72.8984375 72.8203125 C74.72357358 75.25202548 74.72357358 75.25202548 77.0859375 76.8828125 C77.6634375 77.3159375 78.2409375 77.7490625 78.8359375 78.1953125 C78.8359375 78.8553125 78.8359375 79.5153125 78.8359375 80.1953125 C80.3209375 80.6903125 80.3209375 80.6903125 81.8359375 81.1953125 C79.8359375 82.1953125 79.8359375 82.1953125 77.7734375 81.9453125 C76.814375 81.5740625 76.814375 81.5740625 75.8359375 81.1953125 C75.5059375 80.2053125 75.1759375 79.2153125 74.8359375 78.1953125 C73.8459375 79.1853125 72.8559375 80.1753125 71.8359375 81.1953125 C71.206875 80.55464844 70.5778125 79.91398437 69.9296875 79.25390625 C69.07375 78.38894531 68.2178125 77.52398437 67.3359375 76.6328125 C66.500625 75.78589844 65.6653125 74.93898438 64.8046875 74.06640625 C62.73597642 72.01901525 60.5877794 70.11882923 58.36743164 68.23779297 C53.31008155 63.82693354 48.63693924 59.04706335 43.94425774 54.25653648 C41.77036852 52.03998183 39.58661613 49.83324842 37.40351963 47.62576771 C33.35641648 43.53320201 29.313498 39.43669177 25.28686523 35.32397461 C22.46801548 32.44562398 19.63700827 29.57973387 16.79767036 26.72159767 C15.72426301 25.63649103 14.65539237 24.54687601 13.59132195 23.45261192 C12.10351083 21.92361478 10.60064577 20.41103798 9.09350586 18.90112305 C8.24493515 18.03843307 7.39636444 17.1757431 6.52207947 16.28691101 C3.39902688 13.85510651 0.62155394 13.22128565 -3.1640625 12.1953125 C-5.1640625 9.1953125 -5.1640625 9.1953125 -4.9140625 5.6328125 C-3.7591077 0.33926965 -3.7591077 0.33926965 0 0 Z " fill="#83919F" transform="translate(25.1640625,2.8046875)"/>
<path d="M0 0 C0.99 0.33 1.98 0.66 3 1 C2.67 1.99 2.34 2.98 2 4 C2.845625 4.04125 3.69125 4.0825 4.5625 4.125 C9.03660969 5.26386428 11.93182128 7.57780066 15 11 C15 11.66 15 12.32 15 13 C15.66 13 16.32 13 17 13 C17.66 14.65 18.32 16.3 19 18 C19.66 18 20.32 18 21 18 C23.625 20.375 23.625 20.375 26 23 C26 23.66 26 24.32 26 25 C27.32 25.66 28.64 26.32 30 27 C29.93952411 40.9166582 29.86186812 54.83312894 29.76428509 68.74957848 C29.71948261 75.21096942 29.68024842 81.67229587 29.65356445 88.13378906 C29.62762987 94.36491601 29.58729785 100.59579604 29.53681374 106.82677078 C29.52007817 109.20867475 29.50860576 111.5906215 29.50238609 113.97257614 C29.49281758 117.29887778 29.46484563 120.62453806 29.43237305 123.95068359 C29.43380814 124.94402206 29.43524323 125.93736053 29.4367218 126.96080017 C29.42418365 127.86386398 29.41164551 128.7669278 29.39872742 129.69735718 C29.39411845 130.48456839 29.38950949 131.27177959 29.38476086 132.08284569 C29 134 29 134 26 136 C25.16773714 124.03840711 24.93318447 112.18383346 25.10642242 100.19696617 C25.17870975 94.38958706 25.18309178 88.58162364 25.20027542 82.77386761 C25.21899574 77.71144749 25.26148002 72.65126421 25.35302734 67.58959961 C25.44128979 62.63371871 25.46515053 57.6811159 25.44664764 52.72452736 C25.45091106 50.8566732 25.47780542 48.98871122 25.5291214 47.12155724 C25.76318841 38.18537755 25.86511307 31.04746375 19.49186325 24.24849415 C17.27930511 22.15001404 14.99147845 20.1947022 12.59990692 18.30370522 C10.22897443 16.37171967 8.13183421 14.18861968 6 12 C5.32195312 11.3915625 4.64390625 10.783125 3.9453125 10.15625 C2.13846287 8.51224948 0.48872009 6.93931193 -1 5 C-0.9375 2.0625 -0.9375 2.0625 0 0 Z " fill="#91AABB" transform="translate(99,80)"/>
<path d="M0 0 C0.33 0 0.66 0 1 0 C1.00021737 0.56979293 1.00043474 1.13958585 1.00065869 1.72664523 C1.0141676 35.47948575 1.05361454 69.23218841 1.12685562 102.98495166 C1.13562262 107.0355403 1.14417238 111.08612937 1.15258789 115.13671875 C1.15426695 115.9431355 1.15594602 116.74955224 1.15767596 117.58040586 C1.18436302 130.64656004 1.19344226 143.71267035 1.19604143 156.77884898 C1.19909832 170.18087684 1.22101437 183.58277764 1.26052457 196.98474813 C1.28431765 205.25794111 1.2933103 213.53088064 1.28351311 221.80410317 C1.27820705 227.47344563 1.29118032 233.14256047 1.3186629 238.81183812 C1.33398769 242.08535922 1.33841844 245.35826548 1.32659721 248.63181686 C1.31505557 252.17797805 1.33397309 255.72268991 1.36076355 259.26873779 C1.35009029 260.30764247 1.33941703 261.34654714 1.32842034 262.41693377 C1.29505468 268.07338311 1.29505468 268.07338311 4.4379015 272.56108475 C5.283394 273.03592678 6.12888651 273.51076881 7 274 C8.07634045 275.15616475 9.1197123 276.3440492 10.125 277.5625 C14.77260584 283.01390463 19.89713869 287.98018706 25 293 C25.66 292.67 26.32 292.34 27 292 C28.54578171 295.44162893 29.24736058 298.11461238 29.22705078 301.88208008 C29.22689972 302.82267776 29.22674866 303.76327545 29.22659302 304.7323761 C29.21627045 305.7346373 29.20594788 306.7368985 29.1953125 307.76953125 C29.1924826 308.80567062 29.18965271 309.84181 29.18673706 310.90934753 C29.17556454 314.21051707 29.15046505 317.51141281 29.125 320.8125 C29.11496643 323.05403253 29.10584124 325.29556933 29.09765625 327.53710938 C29.07563478 333.0248326 29.04218621 338.51239674 29 344 C28.67 344 28.34 344 28 344 C28 329.81 28 315.62 28 301 C26.35 301 24.7 301 23 301 C23 302.65 23 304.3 23 306 C22.67 306 22.34 306 22 306 C21.91117554 304.44430298 21.91117554 304.44430298 21.82055664 302.85717773 C20.86948076 298.38647025 19.08784563 296.30185126 15.87109375 293.28515625 C15.36199966 292.78455185 14.85290558 292.28394745 14.3283844 291.76817322 C12.71170934 290.18487384 11.0753934 288.62380906 9.4375 287.0625 C8.33261455 285.98773454 7.22908308 284.9115753 6.12695312 283.83398438 C3.4333667 281.20627097 0.72197001 278.59828734 -2 276 C-1.34 275.67 -0.68 275.34 0 275 C0 184.25 0 93.5 0 0 Z " fill="#6395B9" transform="translate(101,362)"/>
<path d="M0 0 C1.6653167 2.92635103 2.2569786 5.05167557 2.29866028 8.40907288 C2.31415924 9.28530807 2.3296582 10.16154327 2.34562683 11.06433105 C2.35250015 12.01771362 2.35937347 12.97109619 2.36645508 13.95336914 C2.38131958 14.96350571 2.39618408 15.97364227 2.41149902 17.01438904 C2.45769514 20.35460388 2.48928589 23.69476144 2.51953125 27.03515625 C2.54585818 29.35396296 2.57261256 31.67276485 2.59977722 33.99156189 C2.65421507 38.85118439 2.70099954 43.7108107 2.74291992 48.57055664 C2.79768607 54.80768812 2.87518294 61.04430407 2.95886707 67.281106 C3.01997355 72.06871721 3.06717464 76.85638998 3.11032677 81.64419365 C3.13310907 83.94441349 3.16069979 86.24459078 3.19312477 88.5446949 C3.23667459 91.75520008 3.26108572 94.96529623 3.28051758 98.17602539 C3.29751205 99.13143219 3.31450653 100.08683899 3.33201599 101.07119751 C3.33341583 101.94461288 3.33481567 102.81802826 3.33625793 103.71791077 C3.34380002 104.47688188 3.35134211 105.23585299 3.35911274 106.01782322 C2.89998566 108.55204418 1.99168831 109.41899883 0 111 C-2.0078125 111.66015625 -2.0078125 111.66015625 -4.125 112.0625 C-5.40375 112.371875 -6.6825 112.68125 -8 113 C-8.495 113.99 -8.495 113.99 -9 115 C-9 112 -9 112 -7.625 110.5625 C-7.08875 110.046875 -6.5525 109.53125 -6 109 C-4.82425289 106.90010348 -4.82425289 106.90010348 -4 105 C-3.34 105 -2.68 105 -2 105 C-2.00444122 103.71404938 -2.00888245 102.42809875 -2.01345825 101.10317993 C-2.05393375 89.0071419 -2.08395038 76.91111753 -2.10362434 64.81502724 C-2.11407879 58.59573172 -2.12826821 52.37649071 -2.15087891 46.15722656 C-2.17254815 40.15964596 -2.1845561 34.1621179 -2.18975449 28.16450119 C-2.19346091 25.87187243 -2.20069821 23.57924667 -2.21146011 21.28664017 C-2.22589636 18.08507229 -2.22798125 14.88372388 -2.22705078 11.68212891 C-2.23424133 10.72619339 -2.24143188 9.77025787 -2.24884033 8.78535461 C-2.246091 7.91594742 -2.24334167 7.04654022 -2.24050903 6.15078735 C-2.24327441 5.0142166 -2.24327441 5.0142166 -2.24609566 3.85468483 C-2 2 -2 2 0 0 Z " fill="#8FAABD" transform="translate(126,775)"/>
<path d="M0 0 C0.33 0 0.66 0 1 0 C1 47.19 1 94.38 1 143 C0.67 143 0.34 143 0 143 C0 140.69 0 138.38 0 136 C-1.32 136 -2.64 136 -4 136 C-4 120.16 -4 104.32 -4 88 C-3.67 88 -3.34 88 -3 88 C-2.67 93.61 -2.34 99.22 -2 105 C-0.46690279 103.46690279 -0.85979117 102.06949467 -0.84178162 99.9315033 C-0.8319928 99.05505661 -0.82220398 98.17860992 -0.81211853 97.27560425 C-0.80636307 96.30672272 -0.8006076 95.33784119 -0.79467773 94.33959961 C-0.78477814 93.32508224 -0.77487854 92.31056488 -0.76467896 91.26530457 C-0.73295872 87.89434179 -0.7082651 84.5233649 -0.68359375 81.15234375 C-0.6630333 78.82206342 -0.64203708 76.4917869 -0.62062073 74.16151428 C-0.56530614 68.01466953 -0.5159384 61.86779061 -0.46777344 55.72088623 C-0.41762677 49.45386701 -0.36190512 43.18689769 -0.30664062 36.91992188 C-0.19894431 24.61332383 -0.097525 12.30668255 0 0 Z " fill="#8FAFC6" transform="translate(128,110)"/>
<path d="M0 0 C0.99 0.33 1.98 0.66 3 1 C2.67 1.99 2.34 2.98 2 4 C2.845625 4.04125 3.69125 4.0825 4.5625 4.125 C9.03660969 5.26386428 11.93182128 7.57780066 15 11 C15 11.66 15 12.32 15 13 C15.66 13 16.32 13 17 13 C17.66 14.65 18.32 16.3 19 18 C19.66 18 20.32 18 21 18 C23.625 20.375 23.625 20.375 26 23 C26 23.66 26 24.32 26 25 C27.32 25.66 28.64 26.32 30 27 C30 27.99 30 28.98 30 30 C27.04904514 30.44064032 24.88774413 30.61863425 22.36669922 28.86181641 C20.64712197 27.23860594 19.0345907 25.55631989 17.4375 23.8125 C16.61088867 22.9452832 16.61088867 22.9452832 15.76757812 22.06054688 C14.67938978 20.91814274 13.59658527 19.7705833 12.51953125 18.61767578 C9.76465453 15.68486518 6.94019438 12.84367252 3.9453125 10.15625 C2.13846287 8.51224948 0.48872009 6.93931193 -1 5 C-0.9375 2.0625 -0.9375 2.0625 0 0 Z " fill="#90A5B5" transform="translate(99,80)"/>
<path d="M0 0 C0.66 1.32 1.32 2.64 2 4 C0.35 4.66 -1.3 5.32 -3 6 C-2.01 5.67 -1.02 5.34 0 5 C1.99673484 4.64763503 3.99650739 4.31165441 6 4 C1.76183463 9.06623768 -2.67408963 13.80038069 -7.375 18.4375 C-8.01566406 19.07365234 -8.65632813 19.70980469 -9.31640625 20.36523438 C-10.87530879 21.91250332 -12.43651416 23.45736492 -14 25 C-14.66 23.68 -15.32 22.36 -16 21 C-17.65 21.66 -19.3 22.32 -21 23 C-21 22.34 -21 21.68 -21 21 C-20.34 21 -19.68 21 -19 21 C-19 20.34 -19 19.68 -19 19 C-17.29059971 17.39771617 -15.46698472 15.98705258 -13.62890625 14.53515625 C-11.73441742 12.99243114 -11.73441742 12.99243114 -11 10 C-9.2578125 8.28125 -9.2578125 8.28125 -7.125 6.5 C-4.64584653 4.41421775 -2.2560424 2.32698713 0 0 Z " fill="#768EA2" transform="translate(120,882)"/>
<path d="M0 0 C3.36179774 1.44077046 5.59156268 3.24750021 8 6 C8 6.66 8 7.32 8 8 C8.556875 8.20625 9.11375 8.4125 9.6875 8.625 C12.92501302 10.55000774 14.68231141 13.03850902 17 16 C15.68 15.67 14.36 15.34 13 15 C12.67 15.99 12.34 16.98 12 18 C12.66 18.33 13.32 18.66 14 19 C13.67 19.99 13.34 20.98 13 22 C6.4 15.4 -0.2 8.8 -7 2 C-4.50907189 0.75453595 -3.58919267 1.2232422 -1 2 C-0.67 1.34 -0.34 0.68 0 0 Z " fill="#7E8F9F" transform="translate(63,42)"/>
<path d="M0 0 C0.7425 0.185625 1.485 0.37125 2.25 0.5625 C4.92229373 1.17472428 4.92229373 1.17472428 7.1875 0.4375 C7.785625 0.293125 8.38375 0.14875 9 0 C9.66 0.66 10.32 1.32 11 2 C11.66 1.67 12.32 1.34 13 1 C14.54578171 4.44162893 15.24736058 7.11461238 15.22705078 10.88208008 C15.22682419 12.29297661 15.22682419 12.29297661 15.22659302 13.7323761 C15.21627045 14.7346373 15.20594788 15.7368985 15.1953125 16.76953125 C15.1924826 17.80567062 15.18965271 18.84181 15.18673706 19.90934753 C15.17556454 23.21051707 15.15046505 26.51141281 15.125 29.8125 C15.11496643 32.05403253 15.10584124 34.29556933 15.09765625 36.53710938 C15.07563478 42.0248326 15.04218621 47.51239674 15 53 C14.67 53 14.34 53 14 53 C14 38.81 14 24.62 14 10 C12.35 10 10.7 10 9 10 C9 11.65 9 13.3 9 15 C8.67 15 8.34 15 8 15 C7.979375 13.989375 7.95875 12.97875 7.9375 11.9375 C7.35254543 7.44980166 4.75163706 5.30428598 1.49609375 2.3828125 C1.00238281 1.92648437 0.50867188 1.47015625 0 1 C0 0.67 0 0.34 0 0 Z " fill="#6E99B8" transform="translate(115,653)"/>
<path d="M0 0 C0 5.94 0 11.88 0 18 C-4.29 18 -8.58 18 -13 18 C-10 14 -10 14 -7.84375 13.02734375 C-7.2353125 12.68832031 -6.626875 12.34929687 -6 12 C-5.44783659 9.90663491 -5.44783659 9.90663491 -5.5 7.5625 C-5.2212656 3.22818015 -5.2212656 3.22818015 -3 0.9375 C-1 0 -1 0 0 0 Z " fill="#457EA4" transform="translate(148,411)"/>
<path d="M0 0 C0.99 0 1.98 0 3 0 C2.67 0.5775 2.34 1.155 2 1.75 C0.72924102 4.19883862 0.72924102 4.19883862 1 8 C-1.30661934 11.384627 -3.96105578 13.68379959 -7.875 14.875 C-8.926875 14.936875 -8.926875 14.936875 -10 15 C-10.4375 12.4375 -10.4375 12.4375 -10 9 C-7.98703056 6.2889847 -5.73735719 3.98121356 -3 2 C-2.01 2 -1.02 2 0 2 C0 1.34 0 0.68 0 0 Z " fill="#8294A4" transform="translate(74,930)"/>
<path d="M0 0 C1.98980117 3.28317194 1.4364396 6.27156137 1.25 10.0625 C0.59 10.0625 -0.07 10.0625 -0.75 10.0625 C-0.75 10.7225 -0.75 11.3825 -0.75 12.0625 C-3.66517292 10.98848892 -5.52810176 10.28439824 -7.75 8.0625 C-8 5.0625 -8 5.0625 -7.75 2.0625 C-5.26939937 -0.41810063 -3.31363818 -1.77516331 0 0 Z " fill="#9AA4AB" transform="translate(27.75,976.9375)"/>
<path d="M0 0 C3.87547124 3.15445333 7.61059096 6.31152546 11 10 C11 10.66 11 11.32 11 12 C11.99 12.33 12.98 12.66 14 13 C12 14 12 14 9.9375 13.75 C9.298125 13.5025 8.65875 13.255 8 13 C7.67 12.01 7.34 11.02 7 10 C6.01 10.99 5.02 11.98 4 13 C2 11.5625 2 11.5625 0 9 C-0.35442445 5.97175582 -0.23347235 3.03514061 0 0 Z " fill="#7A8B9B" transform="translate(93,71)"/>
<path d="M0 0 C0.99 0.33 1.98 0.66 3 1 C2.67 1.99 2.34 2.98 2 4 C3.423125 4.12375 3.423125 4.12375 4.875 4.25 C8 5 8 5 9.375 7.0625 C9.58125 7.701875 9.7875 8.34125 10 9 C9.01 9.495 9.01 9.495 8 10 C8.33 11.32 8.66 12.64 9 14 C7.8944811 13.06409496 6.79064547 12.12620142 5.6875 11.1875 C5.07261719 10.66542969 4.45773438 10.14335938 3.82421875 9.60546875 C3.22222656 9.07566406 2.62023437 8.54585937 2 8 C1.4225 7.4946875 0.845 6.989375 0.25 6.46875 C-0.1625 5.9840625 -0.575 5.499375 -1 5 C-0.6875 2.3125 -0.6875 2.3125 0 0 Z " fill="#94A6B7" transform="translate(99,80)"/>
<path d="M0 0 C0 0.66 0 1.32 0 2 C0.33 2 0.66 2 1 2 C1 3.65 1 5.3 1 7 C-0.2065625 6.9690625 -0.2065625 6.9690625 -1.4375 6.9375 C-3.93354885 6.70366379 -3.93354885 6.70366379 -5 8 C-6.66617115 8.04063832 -8.33388095 8.042721 -10 8 C-10 7.34 -10 6.68 -10 6 C-9.34 5.67 -8.68 5.34 -8 5 C-7.67 4.175 -7.34 3.35 -7 2.5 C-5.38313085 -1.54217286 -3.76328407 -1.12898522 0 0 Z " fill="#989FAB" transform="translate(31,6)"/>
<path d="M0 0 C0.268125 0.639375 0.53625 1.27875 0.8125 1.9375 C1.88667752 4.33131686 1.88667752 4.33131686 5 5 C2.03 7.97 -0.94 10.94 -4 14 C-4.33 13.01 -4.66 12.02 -5 11 C-3.5625 8.3125 -3.5625 8.3125 -2 6 C-2.99 5.67 -3.98 5.34 -5 5 C-3.35 3.35 -1.7 1.7 0 0 Z " fill="#8092A2" transform="translate(63,940)"/>
<path d="M0 0 C0.33 0.66 0.66 1.32 1 2 C2.98 2 4.96 2 7 2 C0.84965831 9.48291572 0.84965831 9.48291572 -3 12 C-2.45276317 8.62537285 -1.9451 6.91765 0 4 C-0.99 4 -1.98 4 -3 4 C-3 4.66 -3 5.32 -3 6 C-3.66 5.67 -4.32 5.34 -5 5 C-4.67 4.34 -4.34 3.68 -4 3 C-3.34 3 -2.68 3 -2 3 C-2 2.34 -2 1.68 -2 1 C-1.34 0.67 -0.68 0.34 0 0 Z " fill="#7D8F9F" transform="translate(85,918)"/>
<path d="M0 0 C3.21043882 1.38188453 5.04936365 2.92421903 7.25 5.625 C8.03117187 6.57246094 8.03117187 6.57246094 8.828125 7.5390625 C9.40820312 8.26222656 9.40820312 8.26222656 10 9 C9.34 9.66 8.68 10.32 8 11 C5.375 10.625 5.375 10.625 3 10 C1.87119943 6.68885166 0.78697325 3.41021743 0 0 Z " fill="#8F9BA8" transform="translate(45,25)"/>
<path d="M0 0 C0.66 0 1.32 0 2 0 C2 7.92 2 15.84 2 24 C1.34 24 0.68 24 0 24 C0 16.08 0 8.16 0 0 Z " fill="#15344E" transform="translate(89,123)"/>
<path d="M0 0 C0.94875 0.04125 1.8975 0.0825 2.875 0.125 C2.875 0.785 2.875 1.445 2.875 2.125 C1.946875 2.4653125 1.946875 2.4653125 1 2.8125 C-1.73910209 4.50429835 -2.17524472 6.11744161 -3.125 9.125 C-4.115 9.125 -5.105 9.125 -6.125 9.125 C-5.13392857 0.20535714 -5.13392857 0.20535714 0 0 Z " fill="#7F8B9A" transform="translate(26.125,2.875)"/>
<path d="M0 0 C1.65 0 3.3 0 5 0 C5 3.3 5 6.6 5 10 C2.5 8.9375 2.5 8.9375 0 7 C-0.3125 3.3125 -0.3125 3.3125 0 0 Z " fill="#477CA4" transform="translate(143,583)"/>
<path d="M0 0 C3.36591866 1.44253657 5.51047079 3.33264727 8 6 C7.67 6.66 7.34 7.32 7 8 C3.125 6.25 3.125 6.25 2 4 C0.68 4.99 -0.64 5.98 -2 7 C-3.65 5.02 -5.3 3.04 -7 1 C-4.03 1.495 -4.03 1.495 -1 2 C-0.67 1.34 -0.34 0.68 0 0 Z " fill="#718191" transform="translate(63,42)"/>
<path d="M0 0 C0.33 0.99 0.66 1.98 1 3 C3.01508358 3.73323796 3.01508358 3.73323796 5 4 C5.33 5.65 5.66 7.3 6 9 C5.34 9 4.68 9 4 9 C4 8.34 4 7.68 4 7 C1.03 6.505 1.03 6.505 -2 6 C-2.33 4.68 -2.66 3.36 -3 2 C-2.01 1.34 -1.02 0.68 0 0 Z " fill="#92A1AF" transform="translate(65,45)"/>
<path d="M0 0 C3.53600465 1.91135386 5.78972846 3.62642766 8 7 C6.02 7.99 6.02 7.99 4 9 C4 8.34 4 7.68 4 7 C3.01 6.67 2.02 6.34 1 6 C1 5.67 1 5.34 1 5 C0.01 5 -0.98 5 -2 5 C-1.34 3.35 -0.68 1.7 0 0 Z " fill="#919DAB" transform="translate(33,13)"/>
<path d="M0 0 C1.76462683 3.08809695 2 4.23312136 2 8 C2.66 8 3.32 8 4 8 C4.33 9.32 4.66 10.64 5 12 C2.08482708 10.92598892 0.22189824 10.22189824 -2 8 C-2.25 5 -2.25 5 -2 2 C-1.34 1.34 -0.68 0.68 0 0 Z " fill="#7F8D98" transform="translate(22,977)"/>
<path d="M0 0 C2.04119788 1.61594832 4.04072937 3.2856382 6 5 C6 5.66 6 6.32 6 7 C4.02 7.99 2.04 8.98 0 10 C0 8.35 0 6.7 0 5 C-0.66 4.67 -1.32 4.34 -2 4 C-1.34 2.68 -0.68 1.36 0 0 Z " fill="#788B9D" transform="translate(108,86)"/>
<path d="M0 0 C1.32 0 2.64 0 4 0 C3.67 1.98 3.34 3.96 3 6 C-0.75 7.125 -0.75 7.125 -3 6 C-2.42655063 3.13275314 -2.1385485 2.1385485 0 0 Z " fill="#90A2B2" transform="translate(89,914)"/>
<path d="M0 0 C1.85776765 3.13498292 2.20140476 5.37471432 2 9 C0.68 8.67 -0.64 8.34 -2 8 C-1.34 7.67 -0.68 7.34 0 7 C0 6.34 0 5.68 0 5 C-1.32 5 -2.64 5 -4 5 C-4 3.68 -4 2.36 -4 1 C-2.68 0.67 -1.36 0.34 0 0 Z " fill="#81ADCB" transform="translate(127,654)"/>
<path d="M0 0 C2.31 1.65 4.62 3.3 7 5 C6.67 5.66 6.34 6.32 6 7 C5.01 7 4.02 7 3 7 C2.01 8.485 2.01 8.485 1 10 C0.01 8.68 -0.98 7.36 -2 6 C-1.34 6 -0.68 6 0 6 C0 4.02 0 2.04 0 0 Z " fill="#7AA7C9" transform="translate(101,631)"/>
<path d="M0 0 C0.33 0 0.66 0 1 0 C1 10.56 1 21.12 1 32 C0.67 32 0.34 32 0 32 C0 21.44 0 10.88 0 0 Z " fill="#477CA4" transform="translate(104,486)"/>
<path d="M0 0 C0 0.99 0 1.98 0 3 C-2 4.6875 -2 4.6875 -4 6 C-4.33 4.68 -4.66 3.36 -5 2 C-6.65 2.66 -8.3 3.32 -10 4 C-10 3.34 -10 2.68 -10 2 C-9.34 2 -8.68 2 -8 2 C-8 1.34 -8 0.68 -8 0 C-5.13822943 -1.43088528 -3.06624227 -0.59991697 0 0 Z " fill="#778DA0" transform="translate(109,901)"/>
<path d="M0 0 C0.94875 0.350625 1.8975 0.70125 2.875 1.0625 C2.5 3.5 2.5 3.5 1.875 6.0625 C0.885 6.5575 0.885 6.5575 -0.125 7.0625 C-1.115 8.5475 -1.115 8.5475 -2.125 10.0625 C-2.455 8.4125 -2.785 6.7625 -3.125 5.0625 C-2.465 4.7325 -1.805 4.4025 -1.125 4.0625 C-1.125 3.4025 -1.125 2.7425 -1.125 2.0625 C-2.445 1.4025 -3.765 0.7425 -5.125 0.0625 C-3.125 -0.9375 -3.125 -0.9375 0 0 Z " fill="#14334D" transform="translate(114.125,107.9375)"/>
<path d="M0 0 C0.99 0.99 1.98 1.98 3 3 C2.67 3.99 2.34 4.98 2 6 C1.67 5.67 1.34 5.34 1 5 C0.01 6.485 0.01 6.485 -1 8 C-2.98 5.69 -4.96 3.38 -7 1 C-2.125 1.875 -2.125 1.875 -1 3 C-0.67 2.01 -0.34 1.02 0 0 Z " fill="#80909F" transform="translate(71,50)"/>
<path d="M0 0 C1.32 0 2.64 0 4 0 C3.42415568 2.38564077 2.77772405 4.66682784 2 7 C1.01 7 0.02 7 -1 7 C-1.04254356 5.00045254 -1.04080783 2.99958364 -1 1 C-0.67 0.67 -0.34 0.34 0 0 Z " fill="#94A1AF" transform="translate(49,954)"/>
<path d="M0 0 C3.4375 0.8125 3.4375 0.8125 7 2 C8 5 8 5 7 8 C5.83035398 6.8572081 4.66435444 5.71068285 3.5 4.5625 C2.8503125 3.92441406 2.200625 3.28632813 1.53125 2.62890625 C0 1 0 1 0 0 Z " fill="#7B8B9B" transform="translate(40,27)"/>
<path d="M0 0 C1.85776765 3.13498292 2.20140476 5.37471432 2 9 C2.66 9 3.32 9 4 9 C3.67 9.66 3.34 10.32 3 11 C2.34 11 1.68 11 1 11 C-0.64284201 8.04288438 -1.6442194 5.37991574 -2 2 C-1.34 1.34 -0.68 0.68 0 0 Z M-1 11 C-0.34 11 0.32 11 1 11 C0.67 11.66 0.34 12.32 0 13 C-0.33 12.34 -0.66 11.68 -1 11 Z " fill="#717D8B" transform="translate(31,3)"/>
<path d="M0 0 C3.11954738 0.33724836 4.6209965 0.6209965 6.875 2.875 C7.24625 3.57625 7.6175 4.2775 8 5 C7.67 5.99 7.34 6.98 7 8 C5.83035398 6.8572081 4.66435444 5.71068285 3.5 4.5625 C2.8503125 3.92441406 2.200625 3.28632812 1.53125 2.62890625 C0 1 0 1 0 0 Z " fill="#79A9C7" transform="translate(107,645)"/>
<path d="M0 0 C2.64 0 5.28 0 8 0 C8 0.99 8 1.98 8 3 C5.36 3 2.72 3 0 3 C0 2.01 0 1.02 0 0 Z " fill="#1D3F5B" transform="translate(140,846)"/>
<path d="M0 0 C1.32 0 2.64 0 4 0 C3.67 1.98 3.34 3.96 3 6 C1.68 5.67 0.36 5.34 -1 5 C-0.67 3.35 -0.34 1.7 0 0 Z " fill="#95A2B0" transform="translate(41,962)"/>
<path d="M0 0 C1.32 0.66 2.64 1.32 4 2 C0.535 4.97 0.535 4.97 -3 8 C-2.22404875 4.89619499 -1.4731994 2.74997221 0 0 Z " fill="#7B8B9B" transform="translate(54,953)"/>
<path d="M0 0 C1.32 0 2.64 0 4 0 C3.649375 0.61875 3.29875 1.2375 2.9375 1.875 C2.628125 2.57625 2.31875 3.2775 2 4 C2.33 4.66 2.66 5.32 3 6 C1.68 6.33 0.36 6.66 -1 7 C-1.04254356 5.00045254 -1.04080783 2.99958364 -1 1 C-0.67 0.67 -0.34 0.34 0 0 Z " fill="#92A2B2" transform="translate(65,938)"/>
<path d="M0 0 C0.99 0 1.98 0 3 0 C2.67 1.65 2.34 3.3 2 5 C0.02 5.33 -1.96 5.66 -4 6 C-3.67 4.68 -3.34 3.36 -3 2 C-2.01 2 -1.02 2 0 2 C0 1.34 0 0.68 0 0 Z " fill="#95A5B5" transform="translate(82,922)"/>
<path d="M0 0 C-0.33 1.32 -0.66 2.64 -1 4 C-3.31 3.67 -5.62 3.34 -8 3 C-8 2.34 -8 1.68 -8 1 C-4.93251126 -0.86240388 -3.40254489 -1.2151946 0 0 Z " fill="#92A6B8" transform="translate(112,898)"/>
<path d="M0 0 C0.33 0 0.66 0 1 0 C1.33 2.97 1.66 5.94 2 9 C0 9 -2 9 -4 9 C-4 8.01 -4 7.02 -4 6 C-3.34 6 -2.68 6 -2 6 C-1.34 4.02 -0.68 2.04 0 0 Z " fill="#13334D" transform="translate(118,110)"/>
<path d="M0 0 C0.66 0 1.32 0 2 0 C2 0.66 2 1.32 2 2 C2.66 2.33 3.32 2.66 4 3 C1.03 5.475 1.03 5.475 -2 8 C-2.20086443 4.28400809 -2.1519437 3.22791555 0 0 Z " fill="#7C91A4" transform="translate(113,893)"/>
<path d="M0 0 C2.97 0 5.94 0 9 0 C8.67 1.32 8.34 2.64 8 4 C5.36 3.34 2.72 2.68 0 2 C0 1.34 0 0.68 0 0 Z " fill="#15324C" transform="translate(100,115)"/>
<path d="M0 0 C0.66 0 1.32 0 2 0 C2.33 0.66 2.66 1.32 3 2 C4.32 1.67 5.64 1.34 7 1 C7 2.65 7 4.3 7 6 C4 6 4 6 1.8125 4.125 C0 2 0 2 0 0 Z " fill="#94A6B7" transform="translate(87,72)"/>
<path d="M0 0 C2.16874252 0.50603992 3.99967627 0.99983813 6 2 C5.67 3.98 5.34 5.96 5 8 C4.34 7.01 3.68 6.02 3 5 C2.01 4.34 1.02 3.68 0 3 C0 2.01 0 1.02 0 0 Z " fill="#95A6B5" transform="translate(82,64)"/>
<path d="M0 0 C2.0625 0.4375 2.0625 0.4375 4 1 C4 2.32 4 3.64 4 5 C2.02 4.34 0.04 3.68 -2 3 C-1 1 -1 1 0 0 Z " fill="#98A6B5" transform="translate(58,40)"/>
<path d="M0 0 C0.99 0 1.98 0 3 0 C2.649375 0.61875 2.29875 1.2375 1.9375 1.875 C1.628125 2.57625 1.31875 3.2775 1 4 C1.33 4.66 1.66 5.32 2 6 C0.68 6.33 -0.64 6.66 -2 7 C-2 5.35 -2 3.7 -2 2 C-1.34 2 -0.68 2 0 2 C0 1.34 0 0.68 0 0 Z " fill="#96A6B6" transform="translate(74,930)"/>
<path d="M0 0 C0.66 0 1.32 0 2 0 C4 3 4 3 3.625 5.6875 C3.41875 6.450625 3.2125 7.21375 3 8 C2.01 7.67 1.02 7.34 0 7 C0 4.66666667 0 2.33333333 0 0 Z " fill="#859AAA" transform="translate(114,93)"/>
<path d="M0 0 C1.14926266 0.95421808 2.29430541 1.91352045 3.4375 2.875 C4.07558594 3.40867188 4.71367188 3.94234375 5.37109375 4.4921875 C7 6 7 6 8 8 C5.125 7.375 5.125 7.375 2 6 C0.625 2.875 0.625 2.875 0 0 Z " fill="#61717F" transform="translate(72,50)"/>
<path d="M0 0 C1.32 0.33 2.64 0.66 4 1 C3.67 2.32 3.34 3.64 3 5 C1.0625 4.625 1.0625 4.625 -1 4 C-1.33 3.34 -1.66 2.68 -2 2 C-1.34 2 -0.68 2 0 2 C0 1.34 0 0.68 0 0 Z " fill="#95A8BC" transform="translate(102,902)"/>
<path d="M0 0 C0.33 0 0.66 0 1 0 C0.25 6.75 0.25 6.75 -2 9 C-2.99 8.67 -3.98 8.34 -5 8 C-4.34 8 -3.68 8 -3 8 C-3 7.01 -3 6.02 -3 5 C-2.34 4.67 -1.68 4.34 -1 4 C-0.34786708 1.97536745 -0.34786708 1.97536745 0 0 Z " fill="#6F7E8D" transform="translate(32,979)"/>
<path d="M0 0 C1.98 0 3.96 0 6 0 C4.6875 2 4.6875 2 3 4 C2.01 4 1.02 4 0 4 C0 2.68 0 1.36 0 0 Z " fill="#8299AC" transform="translate(115,891)"/>
<path d="M0 0 C0.66 0.66 1.32 1.32 2 2 C1.67 2.33 1.34 2.66 1 3 C1.66 3.33 2.32 3.66 3 4 C2.67 4.99 2.34 5.98 2 7 C0.35 5.35 -1.3 3.7 -3 2 C-2.01 2 -1.02 2 0 2 C0 1.34 0 0.68 0 0 Z " fill="#7C8898" transform="translate(34,16)"/>
<path d="M0 0 C0.66 0 1.32 0 2 0 C2 2.64 2 5.28 2 8 C1.34 8 0.68 8 0 8 C0 5.36 0 2.72 0 0 Z " fill="#4179A2" transform="translate(89,494)"/>
<path d="M0 0 C1.32 0 2.64 0 4 0 C4.33 1.65 4.66 3.3 5 5 C3.35 4.67 1.7 4.34 0 4 C0 2.68 0 1.36 0 0 Z " fill="#11304C" transform="translate(128,99)"/>
<path d="M0 0 C0.99 0.33 1.98 0.66 3 1 C2.67 1.99 2.34 2.98 2 4 C1.01 3.67 0.02 3.34 -1 3 C-0.67 2.01 -0.34 1.02 0 0 Z " fill="#497EA6" transform="translate(104,446)"/>
<path d="M0 0 C0.99 0 1.98 0 3 0 C2.67 1.32 2.34 2.64 2 4 C1.34 4 0.68 4 0 4 C-0.33 3.01 -0.66 2.02 -1 1 C-0.67 0.67 -0.34 0.34 0 0 Z " fill="#4A7FA7" transform="translate(129,423)"/>
<path d="M0 0 C0.99 0.33 1.98 0.66 3 1 C2.34 2.32 1.68 3.64 1 5 C0.34 3.68 -0.32 2.36 -1 1 C-0.67 0.67 -0.34 0.34 0 0 Z " fill="#497EA6" transform="translate(129,415)"/>
<path d="M0 0 C0.33 0.66 0.66 1.32 1 2 C3.52733235 2.65555119 3.52733235 2.65555119 6 3 C6 3.33 6 3.66 6 4 C3.36 3.67 0.72 3.34 -2 3 C-1.34 2.67 -0.68 2.34 0 2 C0 1.34 0 0.68 0 0 Z " fill="#15334D" transform="translate(93,119)"/>
<path d="M0 0 C0.66 0 1.32 0 2 0 C2 0.66 2 1.32 2 2 C2.99 2 3.98 2 5 2 C5 2.66 5 3.32 5 4 C3.35 3.67 1.7 3.34 0 3 C0 2.01 0 1.02 0 0 Z " fill="#5485A7" transform="translate(125,338)"/>
<path d="M0 0 C0 2.33333333 0 4.66666667 0 7 C-0.66 7 -1.32 7 -2 7 C-2.33 6.01 -2.66 5.02 -3 4 C-1.5625 1.8125 -1.5625 1.8125 0 0 Z " fill="#14324D" transform="translate(109,98)"/>
<path d="M0 0 C0.99 0.33 1.98 0.66 3 1 C2.01 1.99 1.02 2.98 0 4 C0 2.68 0 1.36 0 0 Z " fill="#4B80A8" transform="translate(129,408)"/>
<path d="M0 0 C0.33 1.32 0.66 2.64 1 4 C-0.32 3.34 -1.64 2.68 -3 2 C-2.01 1.34 -1.02 0.68 0 0 Z " fill="#4C81A9" transform="translate(113,446)"/>
<path d="M0 0 C0.33 0 0.66 0 1 0 C1 2.64 1 5.28 1 8 C0.67 8 0.34 8 0 8 C0 5.36 0 2.72 0 0 Z " fill="#4279A2" transform="translate(92,494)"/>
<path d="M0 0 C0.99 0.99 1.98 1.98 3 3 C2.01 3.33 1.02 3.66 0 4 C0 2.68 0 1.36 0 0 Z " fill="#457DA6" transform="translate(89,446)"/>
<path d="M0 0 C0.33 1.32 0.66 2.64 1 4 C0.34 3.67 -0.32 3.34 -1 3 C-0.67 2.01 -0.34 1.02 0 0 Z " fill="#4D82AA" transform="translate(119,446)"/>
<path d="M0 0 C0.33 0.99 0.66 1.98 1 3 C0.01 2.67 -0.98 2.34 -2 2 C-1.34 1.34 -0.68 0.68 0 0 Z " fill="#467CA4" transform="translate(139,419)"/>
<path d="M0 0 C0.99 0.495 0.99 0.495 2 1 C1.67 1.99 1.34 2.98 1 4 C0.67 2.68 0.34 1.36 0 0 Z " fill="#4F83AA" transform="translate(129,400)"/>
<path d="M0 0 C0.99 0.33 1.98 0.66 3 1 C2.67 1.66 2.34 2.32 2 3 C1.34 2.67 0.68 2.34 0 2 C0 1.34 0 0.68 0 0 Z " fill="#17344D" transform="translate(113,104)"/>
<path d="M0 0 C0.66 0 1.32 0 2 0 C2 0.66 2 1.32 2 2 C1.34 2 0.68 2 0 2 C0 1.34 0 0.68 0 0 Z " fill="#4C80A7" transform="translate(128,393)"/>
<path d="M0 0 C0.66 0 1.32 0 2 0 C2 0.66 2 1.32 2 2 C1.34 2 0.68 2 0 2 C0 1.34 0 0.68 0 0 Z " fill="#497DA4" transform="translate(128,385)"/>
<path d="M0 0 C0.66 0 1.32 0 2 0 C2 0.66 2 1.32 2 2 C1.34 2 0.68 2 0 2 C0 1.34 0 0.68 0 0 Z " fill="#4D81A8" transform="translate(128,378)"/>
<path d="M0 0 C1 4 1 4 1 4 Z " fill="#19364D" transform="translate(120,114)"/>
<path d="M0 0 C0.66 0 1.32 0 2 0 C2 0.66 2 1.32 2 2 C1.34 2 0.68 2 0 2 C0 1.34 0 0.68 0 0 Z " fill="#243D53" transform="translate(145,17)"/>
<path d="M0 0 C0.66 0 1.32 0 2 0 C2 0.66 2 1.32 2 2 C1.34 2 0.68 2 0 2 C0 1.34 0 0.68 0 0 Z " fill="#24374D" transform="translate(38,4)"/>
<path d="M0 0 C0.66 0 1.32 0 2 0 C2 0.66 2 1.32 2 2 C1.34 2 0.68 2 0 2 C0 1.34 0 0.68 0 0 Z " fill="#27394F" transform="translate(7,0)"/>
<path d="M0 0 C0.33 0.66 0.66 1.32 1 2 C0.34 1.67 -0.32 1.34 -1 1 C-0.67 0.67 -0.34 0.34 0 0 Z " fill="#477CA4" transform="translate(119,451)"/>
<path d="M0 0 C0.66 0.66 1.32 1.32 2 2 C1.34 2 0.68 2 0 2 C0 1.34 0 0.68 0 0 Z " fill="#18344C" transform="translate(100,121)"/>
<path d="" fill="#17354C" transform="translate(0,0)"/>
<path d="M0 0 C0.33 0.66 0.66 1.32 1 2 C0.34 1.67 -0.32 1.34 -1 1 C-0.67 0.67 -0.34 0.34 0 0 Z " fill="#15334D" transform="translate(109,105)"/>
<path d="M0 0 C0.66 0 1.32 0 2 0 C1.67 0.66 1.34 1.32 1 2 C0.67 1.34 0.34 0.68 0 0 Z " fill="#46596A" transform="translate(70,12)"/>
<path d="" fill="#1D3F5B" transform="translate(0,0)"/>
<path d="" fill="#517EA5" transform="translate(0,0)"/>
<path d="M0 0 C2 1 2 1 2 1 Z " fill="#4F7FA5" transform="translate(139,665)"/>
<path d="M0 0 C2 1 2 1 2 1 Z " fill="#4F82A8" transform="translate(127,647)"/>
<path d="M0 0 C2 1 2 1 2 1 Z " fill="#487DA5" transform="translate(111,452)"/>
<path d="" fill="#487DA5" transform="translate(0,0)"/>
<path d="" fill="#5080A6" transform="translate(0,0)"/>
<path d="M0 0 C2 1 2 1 2 1 Z " fill="#5788A8" transform="translate(127,337)"/>
<path d="" fill="#123B4F" transform="translate(0,0)"/>
<path d="M0 0 C2 1 2 1 2 1 Z " fill="#18344C" transform="translate(106,122)"/>
<path d="" fill="#19354D" transform="translate(0,0)"/>
<path d="M0 0 C2 1 2 1 2 1 Z " fill="#15334D" transform="translate(109,112)"/>
<path d="M0 0 C2 1 2 1 2 1 Z " fill="#18344C" transform="translate(79,110)"/>
<path d="" fill="#2A4359" transform="translate(0,0)"/>
<path d="" fill="#2E475D" transform="translate(0,0)"/>
<path d="" fill="#2A4359" transform="translate(0,0)"/>
<path d="" fill="#2C455B" transform="translate(0,0)"/>
<path d="" fill="#23415B" transform="translate(0,0)"/>
<path d="" fill="#1D3E5D" transform="translate(0,0)"/>
<path d="" fill="#2C4860" transform="translate(0,0)"/>
<path d="" fill="#1E405B" transform="translate(0,0)"/>
<path d="" fill="#1E405B" transform="translate(0,0)"/>
<path d="" fill="#4C7CA4" transform="translate(0,0)"/>
<path d="" fill="#5585AB" transform="translate(0,0)"/>
<path d="" fill="#497EA6" transform="translate(0,0)"/>
<path d="" fill="#487DA5" transform="translate(0,0)"/>
<path d="" fill="#477CA4" transform="translate(0,0)"/>
<path d="" fill="#133C50" transform="translate(0,0)"/>
<path d="" fill="#133C50" transform="translate(0,0)"/>
<path d="" fill="#19354D" transform="translate(0,0)"/>
<path d="" fill="#17354F" transform="translate(0,0)"/>
<path d="" fill="#1B354C" transform="translate(0,0)"/>
<path d="" fill="#16344E" transform="translate(0,0)"/>
<path d="" fill="#13334C" transform="translate(0,0)"/>
<path d="" fill="#183650" transform="translate(0,0)"/>
<path d="" fill="#15334D" transform="translate(0,0)"/>
<path d="" fill="#14324C" transform="translate(0,0)"/>
<path d="" fill="#18334E" transform="translate(0,0)"/>
<path d="" fill="#17354F" transform="translate(0,0)"/>
<path d="" fill="#17354F" transform="translate(0,0)"/>
<path d="" fill="#16344E" transform="translate(0,0)"/>
<path d="" fill="#203B50" transform="translate(0,0)"/>
<path d="" fill="#1F3A4F" transform="translate(0,0)"/>
<path d="" fill="#17354D" transform="translate(0,0)"/>
<path d="" fill="#203C52" transform="translate(0,0)"/>
<path d="" fill="#16344E" transform="translate(0,0)"/>
<path d="" fill="#22394B" transform="translate(0,0)"/>
<path d="" fill="#1E3A50" transform="translate(0,0)"/>
<path d="" fill="#15334D" transform="translate(0,0)"/>
<path d="" fill="#11304C" transform="translate(0,0)"/>
<path d="" fill="#1B374F" transform="translate(0,0)"/>
<path d="" fill="#12314D" transform="translate(0,0)"/>
<path d="" fill="#13314D" transform="translate(0,0)"/>
<path d="" fill="#13324E" transform="translate(0,0)"/>
<path d="" fill="#14324C" transform="translate(0,0)"/>
<path d="" fill="#1F3950" transform="translate(0,0)"/>
<path d="" fill="#18344C" transform="translate(0,0)"/>
<path d="" fill="#1C364D" transform="translate(0,0)"/>
<path d="" fill="#14324C" transform="translate(0,0)"/>
<path d="" fill="#1E374D" transform="translate(0,0)"/>
<path d="" fill="#17354F" transform="translate(0,0)"/>
<path d="" fill="#2F4157" transform="translate(0,0)"/>
</svg>
