<?xml version="1.0" encoding="UTF-8"?>
<svg version="1.1" xmlns="http://www.w3.org/2000/svg" width="186" height="1005">
<path d="M0,0 L5,0 L5,1 L6,1 L6,2 L8,2 L8,5 L9,5 L9,8 L8,8 L8,11 L6,11 L6,12 L5,12 L5,13 L0,13 L0,14 L-2,14 L-2,15 L-3,15 L-3,16 L-4,16 L-4,18 L-6,18 L-6,19 L-7,19 L-7,20 L-8,20 L-8,22 L-10,22 L-10,23 L-11,23 L-11,24 L-12,24 L-12,26 L-14,26 L-14,27 L-15,27 L-15,28 L-16,28 L-16,30 L-18,30 L-18,31 L-19,31 L-19,33 L-20,33 L-20,34 L-22,34 L-22,35 L-23,35 L-23,36 L-24,36 L-24,38 L-26,38 L-26,39 L-27,39 L-27,40 L-28,40 L-28,42 L-30,42 L-30,43 L-31,43 L-31,44 L-32,44 L-32,46 L-33,46 L-33,47 L-35,47 L-35,49 L-36,49 L-36,50 L-38,50 L-38,51 L-39,51 L-39,52 L-40,52 L-40,54 L-42,54 L-42,56 L-44,56 L-44,58 L-46,58 L-46,59 L-47,59 L-47,60 L-48,60 L-48,62 L-49,62 L-49,63 L-50,63 L-50,64 L-51,64 L-51,65 L-52,65 L-52,66 L-53,66 L-53,67 L-55,67 L-55,69 L-56,69 L-56,70 L-57,70 L-57,71 L-59,71 L-59,73 L-60,73 L-60,74 L-61,74 L-61,75 L-63,75 L-63,77 L-64,77 L-64,78 L-65,78 L-65,79 L-67,79 L-67,81 L-68,81 L-68,82 L-69,82 L-69,83 L-71,83 L-71,85 L-72,85 L-72,86 L-73,86 L-73,87 L-74,87 L-74,88 L-75,88 L-75,89 L-76,89 L-76,90 L-77,90 L-77,91 L-79,91 L-79,93 L-80,93 L-80,94 L-81,94 L-81,95 L-82,95 L-82,96 L-83,96 L-83,97 L-84,97 L-84,98 L-85,98 L-85,99 L-87,99 L-87,101 L-88,101 L-88,102 L-89,102 L-89,103 L-90,103 L-90,104 L-91,104 L-91,105 L-92,105 L-92,106 L-93,106 L-93,107 L-94,107 L-94,108 L-95,108 L-95,262 L-94,262 L-94,263 L-93,263 L-93,264 L-92,264 L-92,266 L-90,266 L-90,267 L-89,267 L-89,269 L-87,269 L-87,270 L-86,270 L-86,272 L-84,272 L-84,273 L-83,273 L-83,274 L-82,274 L-82,275 L-81,275 L-81,276 L-80,276 L-80,277 L-79,277 L-79,278 L-78,278 L-78,279 L-77,279 L-77,280 L-76,280 L-76,281 L-75,281 L-75,282 L-74,282 L-74,283 L-73,283 L-73,284 L-72,284 L-72,285 L-71,285 L-71,286 L-70,286 L-70,288 L-68,288 L-68,289 L-67,289 L-67,631 L-68,631 L-68,632 L-69,632 L-69,633 L-70,633 L-70,634 L-71,634 L-71,635 L-72,635 L-72,636 L-73,636 L-73,637 L-74,637 L-74,638 L-75,638 L-75,639 L-76,639 L-76,640 L-77,640 L-77,641 L-78,641 L-78,642 L-79,642 L-79,643 L-80,643 L-80,644 L-81,644 L-81,645 L-82,645 L-82,646 L-83,646 L-83,647 L-84,647 L-84,648 L-85,648 L-85,649 L-86,649 L-86,650 L-87,650 L-87,651 L-88,651 L-88,652 L-89,652 L-89,653 L-90,653 L-90,654 L-91,654 L-91,655 L-92,655 L-92,656 L-93,656 L-93,657 L-94,657 L-94,658 L-95,658 L-95,661 L-94,661 L-94,665 L-95,665 L-95,698 L-94,698 L-94,699 L-95,699 L-95,877 L-94,877 L-94,878 L-93,878 L-93,880 L-92,880 L-92,882 L-95,882 L-95,881 L-98,881 L-98,880 L-100,880 L-100,655 L-98,655 L-98,654 L-97,654 L-97,653 L-96,653 L-96,651 L-95,651 L-95,650 L-93,650 L-93,649 L-92,649 L-92,648 L-91,648 L-91,647 L-90,647 L-90,646 L-89,646 L-89,645 L-88,645 L-88,643 L-87,643 L-87,642 L-85,642 L-85,641 L-84,641 L-84,640 L-83,640 L-83,639 L-82,639 L-82,638 L-81,638 L-81,637 L-80,637 L-80,636 L-79,636 L-79,635 L-78,635 L-78,634 L-77,634 L-77,633 L-76,633 L-76,632 L-75,632 L-75,631 L-74,631 L-74,630 L-73,630 L-73,629 L-72,629 L-72,356 L-73,356 L-73,355 L-74,355 L-74,354 L-75,354 L-75,353 L-76,353 L-76,352 L-77,352 L-77,351 L-78,351 L-78,350 L-79,350 L-79,349 L-80,349 L-80,348 L-81,348 L-81,347 L-82,347 L-82,346 L-83,346 L-83,345 L-84,345 L-84,344 L-85,344 L-85,343 L-86,343 L-86,342 L-87,342 L-87,341 L-88,341 L-88,340 L-89,340 L-89,339 L-90,339 L-90,338 L-91,338 L-91,337 L-92,337 L-92,336 L-93,336 L-93,335 L-94,335 L-94,334 L-95,334 L-95,333 L-96,333 L-96,332 L-97,332 L-97,331 L-98,331 L-98,330 L-99,330 L-99,329 L-100,329 L-100,104 L-99,104 L-99,103 L-98,103 L-98,102 L-97,102 L-97,101 L-96,101 L-96,100 L-95,100 L-95,99 L-94,99 L-94,98 L-93,98 L-93,97 L-92,97 L-92,96 L-91,96 L-91,95 L-90,95 L-90,94 L-89,94 L-89,93 L-88,93 L-88,92 L-87,92 L-87,91 L-86,91 L-86,90 L-85,90 L-85,89 L-84,89 L-84,88 L-83,88 L-83,87 L-82,87 L-82,86 L-81,86 L-81,85 L-80,85 L-80,84 L-79,84 L-79,83 L-78,83 L-78,82 L-77,82 L-77,81 L-76,81 L-76,80 L-75,80 L-75,79 L-74,79 L-74,78 L-73,78 L-73,77 L-72,77 L-72,76 L-71,76 L-71,75 L-70,75 L-70,74 L-69,74 L-69,73 L-68,73 L-68,72 L-67,72 L-67,71 L-66,71 L-66,70 L-65,70 L-65,69 L-64,69 L-64,68 L-63,68 L-63,67 L-62,67 L-62,66 L-61,66 L-61,65 L-60,65 L-60,64 L-59,64 L-59,63 L-58,63 L-58,62 L-57,62 L-57,61 L-56,61 L-56,60 L-55,60 L-55,59 L-54,59 L-54,58 L-53,58 L-53,57 L-52,57 L-52,56 L-51,56 L-51,55 L-50,55 L-50,54 L-49,54 L-49,53 L-48,53 L-48,52 L-47,52 L-47,51 L-46,51 L-46,50 L-45,50 L-45,49 L-44,49 L-44,48 L-43,48 L-43,47 L-42,47 L-42,46 L-41,46 L-41,45 L-40,45 L-40,44 L-39,44 L-39,43 L-38,43 L-38,42 L-37,42 L-37,41 L-36,41 L-36,40 L-35,40 L-35,39 L-34,39 L-34,38 L-33,38 L-33,37 L-32,37 L-32,36 L-31,36 L-31,35 L-30,35 L-30,34 L-29,34 L-29,33 L-28,33 L-28,32 L-27,32 L-27,31 L-26,31 L-26,30 L-25,30 L-25,29 L-24,29 L-24,28 L-23,28 L-23,27 L-22,27 L-22,26 L-21,26 L-21,25 L-20,25 L-20,24 L-19,24 L-19,23 L-18,23 L-18,22 L-17,22 L-17,21 L-16,21 L-16,20 L-15,20 L-15,19 L-14,19 L-14,18 L-13,18 L-13,17 L-12,17 L-12,16 L-11,16 L-11,15 L-10,15 L-10,14 L-9,14 L-9,13 L-8,13 L-8,12 L-7,12 L-7,11 L-6,11 L-6,10 L-5,10 L-5,9 L-4,9 L-4,5 L-3,5 L-3,3 L-2,3 L-2,2 L-1,2 L-1,1 L0,1 Z " fill="#8AADC8" transform="translate(137,0)"/>
<path d="M0,0 L1,0 L1,1 L2,1 L2,2 L3,2 L3,3 L4,3 L4,4 L5,4 L5,5 L6,5 L6,6 L7,6 L7,7 L8,7 L8,8 L9,8 L9,9 L10,9 L10,10 L11,10 L11,11 L12,11 L12,12 L13,12 L13,13 L14,13 L14,14 L15,14 L15,15 L16,15 L16,16 L17,16 L17,17 L18,17 L18,18 L19,18 L19,19 L20,19 L20,20 L21,20 L21,21 L22,21 L22,22 L23,22 L23,23 L24,23 L24,24 L25,24 L25,25 L26,25 L26,26 L27,26 L27,27 L28,27 L28,28 L29,28 L29,29 L30,29 L30,30 L31,30 L31,31 L32,31 L32,32 L33,32 L33,33 L37,33 L37,34 L39,34 L39,35 L40,35 L40,36 L41,36 L41,37 L42,37 L42,43 L41,43 L41,44 L40,44 L40,45 L39,45 L39,46 L37,46 L37,47 L35,47 L35,46 L32,46 L32,45 L31,45 L31,44 L30,44 L30,42 L29,42 L29,37 L28,37 L28,36 L27,36 L27,35 L26,35 L26,34 L25,34 L25,33 L24,33 L24,32 L23,32 L23,31 L22,31 L22,30 L21,30 L21,29 L20,29 L20,28 L19,28 L19,27 L18,27 L18,26 L17,26 L17,25 L16,25 L16,24 L15,24 L15,23 L14,23 L14,22 L13,22 L13,21 L12,21 L12,20 L11,20 L11,19 L10,19 L10,18 L9,18 L9,17 L8,17 L8,16 L7,16 L7,15 L6,15 L6,14 L5,14 L5,13 L4,13 L4,12 L3,12 L3,11 L2,11 L2,10 L1,10 L1,9 L0,9 L0,8 L-1,8 L-1,7 L-2,7 L-2,6 L-3,6 L-3,5 L-4,5 L-4,4 L-2,4 L-2,3 L0,3 Z " fill="#8595A4" transform="translate(104,939)"/>
<path d="M0,0 L1,0 L1,1 L2,1 L2,2 L3,2 L3,3 L4,3 L4,4 L5,4 L5,5 L6,5 L6,6 L7,6 L7,7 L8,7 L8,8 L9,8 L9,9 L10,9 L10,10 L11,10 L11,11 L12,11 L12,12 L13,12 L13,13 L14,13 L14,14 L15,14 L15,15 L16,15 L16,16 L17,16 L17,17 L18,17 L18,18 L19,18 L19,19 L20,19 L20,20 L21,20 L21,21 L22,21 L22,22 L23,22 L23,23 L24,23 L24,24 L25,24 L25,25 L26,25 L26,26 L27,26 L27,27 L28,27 L28,28 L29,28 L29,29 L30,29 L30,30 L31,30 L31,31 L32,31 L32,32 L33,32 L33,33 L34,33 L34,34 L35,34 L35,35 L36,35 L36,36 L37,36 L37,37 L38,37 L38,38 L39,38 L39,39 L40,39 L40,40 L41,40 L41,41 L42,41 L42,42 L43,42 L43,43 L44,43 L44,47 L42,47 L42,48 L39,48 L39,47 L38,47 L38,46 L37,46 L37,45 L36,45 L36,44 L35,44 L35,43 L34,43 L34,42 L33,42 L33,41 L32,41 L32,40 L31,40 L31,39 L30,39 L30,38 L29,38 L29,37 L28,37 L28,36 L27,36 L27,35 L26,35 L26,34 L25,34 L25,33 L24,33 L24,32 L23,32 L23,31 L22,31 L22,30 L21,30 L21,29 L20,29 L20,28 L19,28 L19,27 L18,27 L18,26 L17,26 L17,25 L16,25 L16,24 L15,24 L15,23 L14,23 L14,22 L13,22 L13,21 L12,21 L12,20 L11,20 L11,19 L10,19 L10,18 L9,18 L9,17 L8,17 L8,16 L7,16 L7,15 L6,15 L6,14 L5,14 L5,13 L4,13 L4,12 L3,12 L3,11 L2,11 L2,10 L1,10 L1,9 L0,9 L0,8 L-1,8 L-1,7 L-2,7 L-2,6 L-3,6 L-3,5 L-4,5 L-4,4 L-2,4 L-2,5 L-1,5 L-1,4 L0,4 L0,3 L-1,3 L-1,2 L0,2 Z " fill="#889AAA" transform="translate(60,895)"/>
<path d="M0,0 L1,0 L1,1 L2,1 L2,2 L3,2 L3,4 L4,4 L4,5 L5,5 L5,6 L6,6 L6,7 L7,7 L7,8 L8,8 L8,9 L9,9 L9,10 L10,10 L10,11 L11,11 L11,12 L13,12 L13,14 L14,14 L14,15 L15,15 L15,16 L16,16 L16,19 L15,19 L15,20 L16,20 L16,21 L15,21 L15,22 L14,22 L14,21 L11,21 L11,20 L10,20 L10,19 L9,19 L9,18 L8,18 L8,17 L7,17 L7,16 L6,16 L6,15 L5,15 L5,14 L4,14 L4,13 L3,13 L3,12 L2,12 L2,11 L1,11 L1,10 L0,10 L0,9 L-1,9 L-1,8 L-2,8 L-2,7 L-3,7 L-3,6 L-4,6 L-4,5 L-5,5 L-5,4 L-6,4 L-6,3 L-7,3 L-7,2 L-5,2 L-5,3 L-2,3 L-2,4 L1,4 L1,2 L0,2 Z " fill="#8A9BAB" transform="translate(44,878)"/>
<path d="M0,0 L2,0 L2,1 L3,1 L3,2 L0,2 Z " fill="#3B607D" transform="translate(61,225)"/>
<path d="M0,0 L3,0 L3,2 L1,2 L1,1 L0,1 Z " fill="#385D7A" transform="translate(84,224)"/>
<path d="M0,0 L2,0 L2,2 L0,2 Z " fill="#395E7B" transform="translate(77,224)"/>
<path d="M0,0 L2,0 L2,2 L0,2 Z " fill="#385D7A" transform="translate(69,224)"/>
<path d="M0,0 L2,0 L2,2 L0,2 Z " fill="#375C79" transform="translate(100,223)"/>
<path d="M0,0 L2,0 L2,2 L0,2 Z " fill="#385D7A" transform="translate(92,223)"/>
<path d="M0,0 L2,0 L2,2 L0,2 Z " fill="#375C79" transform="translate(107,222)"/>
<path d="M0,0 L2,0 L2,2 L0,2 Z " fill="#395D7D" transform="translate(123,221)"/>
<path d="M0,0 L2,0 L2,2 L0,2 Z " fill="#385C7C" transform="translate(115,221)"/>
<path d="M0,0 L1,0 L1,1 L2,1 L2,2 L0,2 Z " fill="#34536F" transform="translate(54,858)"/>
<path d="M0,0 L1,0 L1,1 L2,1 L2,2 L0,2 Z " fill="#435F77" transform="translate(54,118)"/>
<path d="M0,0 L2,0 L2,1 L1,1 L1,2 L0,2 Z " fill="#415D75" transform="translate(58,117)"/>
<path d="M0,0 L1,0 L1,2 L0,2 Z " fill="#3A4D5E" transform="translate(185,1003)"/>
<path d="M0,0 L1,0 L1,2 L0,2 Z " fill="#3C576F" transform="translate(53,880)"/>
<path d="M0,0 L1,0 L1,2 L0,2 Z " fill="#31516A" transform="translate(30,878)"/>
<path d="M0,0 L1,0 L1,2 L0,2 Z " fill="#32516D" transform="translate(7,875)"/>
<path d="M0,0 L2,0 L2,1 L0,1 Z " fill="#375672" transform="translate(54,866)"/>
<path d="M0,0 L2,0 L2,1 L0,1 Z " fill="#325978" transform="translate(130,221)"/>
<path d="M0,0 L2,0 L2,1 L0,1 Z " fill="#386080" transform="translate(48,206)"/>
<path d="M0,0 L1,0 L1,2 L0,2 Z " fill="#3D6684" transform="translate(49,198)"/>
<path d="M0,0 L1,0 L1,2 L0,2 Z " fill="#3C617C" transform="translate(50,183)"/>
<path d="M0,0 L2,0 L2,1 L0,1 Z " fill="#3B5D79" transform="translate(51,168)"/>
<path d="M0,0 L1,0 L1,2 L0,2 Z " fill="#435D75" transform="translate(56,115)"/>
<path d="M0,0 L1,0 L1,1 L0,1 Z " fill="#355169" transform="translate(177,905)"/>
<path d="M0,0 L1,0 L1,1 L0,1 Z " fill="#3B5669" transform="translate(59,905)"/>
<path d="M0,0 L1,0 L1,1 L0,1 Z " fill="#37536B" transform="translate(98,885)"/>
<path d="M0,0 L1,0 L1,1 L0,1 Z " fill="#36526A" transform="translate(90,884)"/>
<path d="M0,0 L1,0 L1,1 L0,1 Z " fill="#38546C" transform="translate(83,883)"/>
<path d="M0,0 L1,0 L1,1 L0,1 Z " fill="#34526A" transform="translate(76,883)"/>
<path d="M0,0 L1,0 L1,1 L0,1 Z " fill="#385670" transform="translate(68,882)"/>
<path d="M0,0 L1,0 L1,1 L0,1 Z " fill="#31516A" transform="translate(22,878)"/>
<path d="M0,0 L1,0 L1,1 L0,1 Z " fill="#2F4E6A" transform="translate(15,877)"/>
<path d="M0,0 L1,0 L1,1 L0,1 Z " fill="#355470" transform="translate(0,875)"/>
<path d="M0,0 L1,0 L1,1 L0,1 Z " fill="#3B607B" transform="translate(50,191)"/>
<path d="M0,0 L1,0 L1,1 L0,1 Z " fill="#3C5E7A" transform="translate(51,176)"/>
<path d="M0,0 L1,0 L1,1 L0,1 Z " fill="#375A76" transform="translate(170,169)"/>
<path d="M0,0 L1,0 L1,1 L0,1 Z " fill="#3A5975" transform="translate(54,146)"/>
<path d="M0,0 L1,0 L1,1 L0,1 Z " fill="#3A5975" transform="translate(54,138)"/>
<path d="M0,0 L1,0 L1,1 L0,1 Z " fill="#3A5976" transform="translate(55,130)"/>
<path d="M0,0 L1,0 L1,1 L0,1 Z " fill="#415D75" transform="translate(57,119)"/>
</svg>
