<?xml version="1.0" encoding="UTF-8"?>
<svg version="1.1" xmlns="http://www.w3.org/2000/svg" width="1862" height="135">
<path d="M0 0 C2.81713815 1.18138051 3.78859736 2.47089983 5 5.25 C5.6745963 7.09389657 6.31661074 8.94983222 6.9375 10.8125 C7.576875 11.121875 8.21625 11.43125 8.875 11.75 C11.43801718 13.07034218 11.6782337 14.2939674 12.9375 16.8125 C14.2528341 17.51401152 15.58867592 18.17775925 16.9375 18.8125 C19.1875 20.8125 19.1875 20.8125 20.9375 22.8125 C20.9375 23.4725 20.9375 24.1325 20.9375 24.8125 C21.5975 24.8125 22.2575 24.8125 22.9375 24.8125 C22.9375 25.4725 22.9375 26.1325 22.9375 26.8125 C23.81148437 27.19921875 23.81148437 27.19921875 24.703125 27.59375 C27.1177903 28.91084017 28.75490177 30.36338384 30.6875 32.3125 C31.60789062 33.22515625 31.60789062 33.22515625 32.546875 34.15625 C33.9375 35.8125 33.9375 35.8125 33.9375 37.8125 C34.9275 38.1425 35.9175 38.4725 36.9375 38.8125 C36.9375 39.4725 36.9375 40.1325 36.9375 40.8125 C37.5975 40.8125 38.2575 40.8125 38.9375 40.8125 C38.9375 41.4725 38.9375 42.1325 38.9375 42.8125 C40.2575 43.4725 41.5775 44.1325 42.9375 44.8125 C42.9375 45.4725 42.9375 46.1325 42.9375 46.8125 C43.5975 46.8125 44.2575 46.8125 44.9375 46.8125 C44.9375 47.4725 44.9375 48.1325 44.9375 48.8125 C45.5975 48.8125 46.2575 48.8125 46.9375 48.8125 C46.9375 49.4725 46.9375 50.1325 46.9375 50.8125 C47.5975 50.8125 48.2575 50.8125 48.9375 50.8125 C51.0625 52.6875 51.0625 52.6875 52.9375 54.8125 C52.9375 55.4725 52.9375 56.1325 52.9375 56.8125 C53.494375 57.039375 54.05125 57.26625 54.625 57.5 C57.59909588 59.18800036 59.65758865 61.27926517 61.9375 63.8125 C61.9375 64.4725 61.9375 65.1325 61.9375 65.8125 C63.4225 66.3075 63.4225 66.3075 64.9375 66.8125 C64.9375 67.4725 64.9375 68.1325 64.9375 68.8125 C65.5975 68.8125 66.2575 68.8125 66.9375 68.8125 C68.3828125 70.31640625 68.3828125 70.31640625 70.0625 72.375 C73.23062862 76.13006613 76.63180236 79.26515657 80.43359375 82.3671875 C80.92988281 82.84414062 81.42617187 83.32109375 81.9375 83.8125 C81.9375 84.4725 81.9375 85.1325 81.9375 85.8125 C241.6575 85.8125 401.3775 85.8125 565.9375 85.8125 C566.5975 84.4925 567.2575 83.1725 567.9375 81.8125 C569.4225 81.3175 569.4225 81.3175 570.9375 80.8125 C571.22625 80.214375 571.515 79.61625 571.8125 79 C573.30463677 76.09862296 575.38395703 74.85533438 577.9375 72.8125 C579.8042705 70.72042961 581.6050424 68.58675004 583.38671875 66.421875 C583.89847656 65.89078125 584.41023437 65.3596875 584.9375 64.8125 C585.5975 64.8125 586.2575 64.8125 586.9375 64.8125 C587.19184814 64.23653076 587.44619629 63.66056152 587.70825195 63.06713867 C590.04019466 58.78998059 593.7265921 55.56937115 597.125 52.125 C597.86814453 51.34060547 598.61128906 50.55621094 599.37695312 49.74804688 C600.11236328 49.00232422 600.84777344 48.25660156 601.60546875 47.48828125 C602.26828857 46.80677002 602.9311084 46.12525879 603.61401367 45.4230957 C608.95418357 41.7213934 616.73445659 42.66911088 622.9991169 42.68107224 C624.503196 42.67799328 624.503196 42.67799328 626.03766054 42.67485213 C629.40655857 42.66918572 632.77541567 42.67063894 636.14431763 42.67205811 C638.58042824 42.66947429 641.01653844 42.66646109 643.45264804 42.6630547 C649.45123921 42.65583036 655.44981663 42.6532822 661.44841081 42.65272565 C668.63388573 42.65181099 675.81935245 42.64514059 683.00482384 42.63837883 C700.36704418 42.62232999 717.72926364 42.6164176 735.09149007 42.61163008 C743.302686 42.60929383 751.51388122 42.60569124 759.72507661 42.6019347 C787.82761741 42.58910254 815.93015782 42.5783812 844.03270149 42.5749321 C845.7962237 42.57471047 847.5597459 42.57448868 849.32326811 42.57426675 C851.09105126 42.57404611 852.8588344 42.57382562 854.62661755 42.5736053 C858.17311613 42.57316274 861.7196147 42.57271563 865.26611328 42.57226562 C866.14543647 42.57215623 867.02475966 42.57204684 867.93072901 42.57193414 C896.46507803 42.56830069 924.99940169 42.5523681 953.53374099 42.52907526 C983.6965975 42.50449798 1013.85943951 42.49076032 1044.02230632 42.48956418 C1047.33097069 42.48939272 1050.63963505 42.48917729 1053.94829941 42.48892975 C1054.76299557 42.48887398 1055.57769174 42.48881821 1056.41707567 42.48876075 C1069.54402905 42.48760874 1082.67095645 42.47657439 1095.79790105 42.46204269 C1108.98086406 42.44770079 1122.16379364 42.4444277 1135.34676231 42.45248267 C1143.18424476 42.45694919 1151.02161954 42.45303755 1158.85908791 42.43724416 C1164.7019232 42.42638946 1170.54467687 42.4311025 1176.38751446 42.44201604 C1178.75817404 42.44398742 1181.12884425 42.4408289 1183.49948885 42.43217167 C1186.70903829 42.42118791 1189.91803224 42.42848947 1193.12756538 42.4405632 C1194.05899319 42.43296801 1194.990421 42.42537282 1195.9500739 42.41754746 C1203.27416191 42.47748338 1206.95893302 44.5853599 1212.14453125 49.75390625 C1212.89541016 50.50220703 1213.64628906 51.25050781 1214.41992188 52.02148438 C1215.18884766 52.79814453 1215.95777344 53.57480469 1216.75 54.375 C1217.53826172 55.15552734 1218.32652344 55.93605469 1219.13867188 56.74023438 C1220.25532227 57.86075195 1220.25532227 57.86075195 1221.39453125 59.00390625 C1222.07491455 59.68654541 1222.75529785 60.36918457 1223.45629883 61.07250977 C1224.9375 62.8125 1224.9375 62.8125 1224.9375 64.8125 C1225.7728125 65.121875 1225.7728125 65.121875 1226.625 65.4375 C1229.19833139 66.96758893 1230.66800355 68.82045452 1232.5 71.15625 C1234.6091724 73.58638341 1237.06666709 75.52049607 1239.58203125 77.515625 C1240.25298828 78.15757813 1240.25298828 78.15757813 1240.9375 78.8125 C1240.9375 79.4725 1240.9375 80.1325 1240.9375 80.8125 C1241.8965625 81.2146875 1241.8965625 81.2146875 1242.875 81.625 C1244.9375 82.8125 1244.9375 82.8125 1245.9375 85.8125 C1405.6575 85.8125 1565.3775 85.8125 1729.9375 85.8125 C1729.9375 85.1525 1729.9375 84.4925 1729.9375 83.8125 C1731.40625 82.40234375 1731.40625 82.40234375 1733.4375 80.75 C1737.48595547 77.33546638 1740.87597871 73.58909612 1744.2734375 69.53515625 C1744.82257813 68.96667969 1745.37171875 68.39820312 1745.9375 67.8125 C1746.5975 67.8125 1747.2575 67.8125 1747.9375 67.8125 C1748.2675 66.8225 1748.5975 65.8325 1748.9375 64.8125 C1749.5975 64.8125 1750.2575 64.8125 1750.9375 64.8125 C1750.9375 64.1525 1750.9375 63.4925 1750.9375 62.8125 C1755.23982558 58.04505814 1755.23982558 58.04505814 1758.9375 56.8125 C1758.9375 56.1525 1758.9375 55.4925 1758.9375 54.8125 C1760.8125 52.6875 1760.8125 52.6875 1762.9375 50.8125 C1763.5975 50.8125 1764.2575 50.8125 1764.9375 50.8125 C1764.9375 50.1525 1764.9375 49.4925 1764.9375 48.8125 C1765.5975 48.8125 1766.2575 48.8125 1766.9375 48.8125 C1766.9375 48.1525 1766.9375 47.4925 1766.9375 46.8125 C1767.5975 46.8125 1768.2575 46.8125 1768.9375 46.8125 C1769.5975 45.4925 1770.2575 44.1725 1770.9375 42.8125 C1771.5975 42.8125 1772.2575 42.8125 1772.9375 42.8125 C1772.9375 42.1525 1772.9375 41.4925 1772.9375 40.8125 C1773.5975 40.8125 1774.2575 40.8125 1774.9375 40.8125 C1775.5975 39.4925 1776.2575 38.1725 1776.9375 36.8125 C1777.5975 36.8125 1778.2575 36.8125 1778.9375 36.8125 C1778.9375 36.1525 1778.9375 35.4925 1778.9375 34.8125 C1779.5975 34.8125 1780.2575 34.8125 1780.9375 34.8125 C1780.9375 34.1525 1780.9375 33.4925 1780.9375 32.8125 C1781.5975 32.8125 1782.2575 32.8125 1782.9375 32.8125 C1782.9375 32.1525 1782.9375 31.4925 1782.9375 30.8125 C1783.5975 30.8125 1784.2575 30.8125 1784.9375 30.8125 C1785.30875 29.884375 1785.30875 29.884375 1785.6875 28.9375 C1787.17490369 26.40891373 1788.37428009 26.09410996 1790.9375 24.8125 C1791.63901152 23.4971659 1792.30275925 22.16132408 1792.9375 20.8125 C1794.9375 18.5625 1794.9375 18.5625 1796.9375 16.8125 C1797.5975 16.8125 1798.2575 16.8125 1798.9375 16.8125 C1799.30875 15.884375 1799.30875 15.884375 1799.6875 14.9375 C1801.17490369 12.40891373 1802.37428009 12.09410996 1804.9375 10.8125 C1806.26033632 8.6812637 1807.04407363 6.53274423 1807.9375 4.1875 C1808.9375 1.8125 1808.9375 1.8125 1810.9375 -0.1875 C1813.5625 0.1875 1813.5625 0.1875 1815.9375 0.8125 C1816.2675 2.7925 1816.5975 4.7725 1816.9375 6.8125 C1816.2775 7.163125 1815.6175 7.51375 1814.9375 7.875 C1807.99521256 12.35856064 1802.21766043 18.40056262 1796.47094727 24.29248047 C1795.02469195 25.7650319 1793.57836403 27.23751203 1792.13197327 28.70993042 C1791.37807878 29.47929806 1790.6241843 30.2486657 1789.84744453 31.0413475 C1785.81776705 35.14806083 1781.76975113 39.2366534 1777.72460938 43.328125 C1772.59395319 48.51882674 1767.46912814 53.71486681 1762.3659668 58.93261719 C1758.22444836 63.16616015 1754.06363218 67.37984973 1749.88917351 71.58090591 C1748.30677329 73.18056419 1746.73156075 74.78736663 1745.16385078 76.40142441 C1742.97196563 78.65617533 1740.7562629 80.88468092 1738.53344727 83.10888672 C1737.8957692 83.77689804 1737.25809113 84.44490936 1736.60108948 85.13316345 C1735.98604553 85.73865524 1735.37100159 86.34414703 1734.73731995 86.96798706 C1733.95785932 87.76045743 1733.95785932 87.76045743 1733.16265202 88.5689373 C1727.51104015 91.72743329 1719.81920878 90.95719036 1713.48953247 90.92602539 C1712.28438898 90.9262447 1712.28438898 90.9262447 1711.05489916 90.92646843 C1708.37788082 90.9257714 1705.70093217 90.91793783 1703.02392578 90.91015625 C1701.08198046 90.90827235 1699.14003463 90.90685376 1697.19808865 90.90585995 C1692.98923829 90.90277008 1688.78040825 90.89654727 1684.57156563 90.88792229 C1677.74863556 90.87402063 1670.92570913 90.86720086 1664.10276794 90.86146545 C1656.78457057 90.85497205 1649.46637528 90.84794494 1642.14818096 90.83857059 C1624.10521022 90.81547789 1606.06227225 90.80611793 1588.01928711 90.80639648 C1586.72257737 90.80640541 1585.42586763 90.80641434 1584.08986366 90.80642354 C1575.48983799 90.80658715 1566.88981245 90.8073393 1558.28978685 90.80835667 C1554.93479572 90.80875345 1551.57980459 90.80912935 1548.22481346 90.80950737 C1547.22455785 90.80962092 1547.22455785 90.80962092 1546.20409505 90.80973675 C1540.80817131 90.81034538 1535.41224757 90.81090218 1530.01632382 90.81141249 C1526.64752726 90.81173284 1523.27873071 90.81208716 1519.90993416 90.81251872 C1505.42324935 90.81433217 1490.93657275 90.8133197 1476.44989014 90.80352783 C1475.18889016 90.80268444 1473.92789018 90.80184105 1472.62867808 90.8009721 C1471.37369116 90.80013178 1470.11870424 90.79929146 1468.82568741 90.79842567 C1444.77517734 90.78242134 1420.72489376 90.78819811 1396.67442703 90.84096718 C1384.38548454 90.86720534 1372.09690197 90.87290539 1359.80794829 90.85139853 C1351.43535506 90.83869275 1343.06305003 90.85148344 1334.69051439 90.88484758 C1329.88365638 90.90327504 1325.07748044 90.91045228 1320.27062798 90.88719368 C1315.8891916 90.86624753 1311.5090643 90.87739516 1307.12774444 90.91434479 C1305.54583599 90.92200962 1303.96381692 90.9178517 1302.38198304 90.90068626 C1294.09546617 90.55109208 1294.09546617 90.55109208 1286.59034443 93.40196133 C1284.7579866 95.26656267 1284.7579866 95.26656267 1283.25214863 97.23186588 C1281.9375 98.8125 1281.9375 98.8125 1279.34938049 99.65428162 C1278.54773972 99.63873734 1277.74609894 99.62319305 1276.92016602 99.60717773 C1275.99974014 99.60664902 1275.07931427 99.6061203 1274.1309967 99.60557556 C1273.16093185 99.56944656 1272.190867 99.53331757 1271.19140625 99.49609375 C1270.18029282 99.48618912 1269.16917938 99.47628448 1268.12742615 99.46607971 C1264.9167713 99.42707925 1261.70961077 99.33928287 1258.5 99.25 C1256.31580479 99.21486766 1254.13155567 99.18293204 1251.94726562 99.15429688 C1246.60949686 99.0773659 1241.27374808 98.9604243 1235.9375 98.8125 C1235.64875 98.173125 1235.36 97.53375 1235.0625 96.875 C1234.10926549 94.66043921 1234.10926549 94.66043921 1231.9375 93.8125 C1229.40904472 92.54827236 1229.17327236 91.28404472 1227.9375 88.8125 C1226.61229497 88.12981862 1225.27937818 87.4617959 1223.9375 86.8125 C1223.6075 85.8225 1223.2775 84.8325 1222.9375 83.8125 C1221.60732185 83.13955996 1220.27324583 82.47431969 1218.9375 81.8125 C1217.15620718 80.2175643 1215.42717734 78.56356277 1213.734375 76.875 C1213.0103952 76.15389038 1213.0103952 76.15389038 1212.27178955 75.41821289 C1211.25750936 74.40528907 1210.24573196 73.38985362 1209.23632812 72.37207031 C1207.68578028 70.81076835 1206.12479497 69.26047503 1204.5625 67.7109375 C1203.57748266 66.72459939 1202.59308547 65.7376415 1201.609375 64.75 C1200.26504395 63.40228516 1200.26504395 63.40228516 1198.89355469 62.02734375 C1196.9375 59.8125 1196.9375 59.8125 1196.9375 57.8125 C1196.29127686 57.84057236 1195.64505371 57.86864471 1194.97924805 57.89756775 C1188.23158211 58.18352283 1181.48348533 58.4184413 1174.73291016 58.62426758 C1172.21649567 58.70763008 1169.70047184 58.80384332 1167.18505859 58.91333008 C1163.56114412 59.06880446 1159.93832079 59.17744312 1156.3125 59.27734375 C1154.63546997 59.36434792 1154.63546997 59.36434792 1152.92456055 59.45310974 C1147.16952666 59.56462637 1143.73240072 59.25873713 1139.2890625 55.40844727 C1138.14431781 54.23608762 1137.02210344 53.04071127 1135.9375 51.8125 C1134.16377539 49.6276397 1134.16377539 49.6276397 1131.90164185 49.56526184 C1131.06543304 49.56668686 1130.22922424 49.56811188 1129.36767578 49.56958008 C1127.94577438 49.56496513 1127.94577438 49.56496513 1126.49514771 49.56025696 C1124.95454178 49.57103523 1124.95454178 49.57103523 1123.3828125 49.58203125 C1122.32971893 49.58248947 1121.27662537 49.58294769 1120.19161987 49.5834198 C1117.9605802 49.58644507 1115.7295427 49.59433952 1113.49853516 49.60668945 C1110.08358263 49.62488765 1106.66890209 49.62719955 1103.25390625 49.62695312 C1101.08853932 49.63187054 1098.92317423 49.63769984 1096.7578125 49.64453125 C1095.73479034 49.64564407 1094.71176819 49.6467569 1093.65774536 49.64790344 C1092.70350677 49.65428329 1091.74926819 49.66066315 1090.76611328 49.66723633 C1089.92831329 49.67104813 1089.09051331 49.67485992 1088.22732544 49.67878723 C1086.00609181 49.80849463 1084.07016669 50.19598621 1081.9375 50.8125 C1081.9375 50.4825 1081.9375 50.1525 1081.9375 49.8125 C1066.43910144 49.78917054 1050.94070418 49.77152059 1035.44229221 49.76068783 C1028.24659705 49.75552497 1021.05091278 49.74848247 1013.85522461 49.73706055 C1007.58565306 49.7271134 1001.31608939 49.7206465 995.04651016 49.71841151 C991.72484379 49.71710445 988.40320534 49.71350003 985.08154488 49.70676994 C981.37930053 49.69956372 977.67710369 49.69850888 973.97485352 49.69897461 C972.86571091 49.69537933 971.7565683 49.69178406 970.61381531 49.68807983 C969.61115631 49.6894545 968.60849731 49.69082916 967.57545471 49.69224548 C966.26051702 49.69086279 966.26051702 49.69086279 964.91901493 49.68945217 C962.93622447 49.59313487 962.93622447 49.59313487 961.9375 50.8125 C960.45733606 50.90818576 958.97261727 50.93438268 957.48936462 50.93275452 C956.04848228 50.93481651 956.04848228 50.93481651 954.57849121 50.93692017 C953.51610229 50.93332489 952.45371338 50.92972961 951.35913086 50.92602539 C949.69105125 50.92624443 949.69105125 50.92624443 947.98927307 50.9264679 C944.29361049 50.92576821 940.59799759 50.9179732 936.90234375 50.91015625 C934.34786507 50.90829227 931.79338603 50.90686827 929.23890686 50.90586853 C923.1898829 50.90243344 917.14088045 50.89454264 911.09186512 50.88451904 C904.20684846 50.87335683 897.32183096 50.86784718 890.43680751 50.86282361 C876.2703617 50.85236 862.10393183 50.83476123 847.9375 50.8125 C847.9375 50.1525 847.9375 49.4925 847.9375 48.8125 C847.45726379 49.13781708 846.97702759 49.46313416 846.48223877 49.79830933 C842.77928476 51.27409987 839.14728147 51.07367523 835.22167969 51.03955078 C833.9040715 51.03998886 833.9040715 51.03998886 832.55984497 51.04043579 C829.65958745 51.03904367 826.75958758 51.02348794 823.859375 51.0078125 C821.84727112 51.00408195 819.83516543 51.00123518 817.82305908 50.99923706 C812.52940854 50.9916039 807.23586789 50.97195807 801.94226074 50.9498291 C796.53964728 50.92936389 791.13701605 50.92023389 785.734375 50.91015625 C775.13536841 50.88871193 764.53644334 50.85457975 753.9375 50.8125 C753.9375 50.4825 753.9375 50.1525 753.9375 49.8125 C747.6675 49.8125 741.3975 49.8125 734.9375 49.8125 C734.9375 50.1425 734.9375 50.4725 734.9375 50.8125 C732.6275 50.8125 730.3175 50.8125 727.9375 50.8125 C727.9375 50.4825 727.9375 50.1525 727.9375 49.8125 C721.03251681 49.71112178 714.12772535 49.6410438 707.22216797 49.59277344 C704.87281116 49.57265186 702.52350446 49.54535149 700.17431641 49.51074219 C696.79837685 49.4622496 693.42309914 49.43953643 690.046875 49.421875 C688.99570496 49.40122986 687.94453491 49.38058472 686.86151123 49.35931396 C681.18223633 49.21252872 681.18223633 49.21252872 676.36816406 51.83691406 C675.89604492 52.48885742 675.42392578 53.14080078 674.9375 53.8125 C674.2775 53.8125 673.6175 53.8125 672.9375 53.8125 C672.2775 55.1325 671.6175 56.4525 670.9375 57.8125 C670.31507416 57.75840973 669.69264832 57.70431946 669.05136108 57.64859009 C635.5440649 53.75856382 635.5440649 53.75856382 605.67578125 65.55859375 C599.01016541 71.66771382 593.27969975 78.71889427 588.0456543 86.07446289 C587.34996338 86.97801514 586.65427246 87.88156738 585.9375 88.8125 C585.2775 88.8125 584.6175 88.8125 583.9375 88.8125 C583.73125 89.34875 583.525 89.885 583.3125 90.4375 C581.33551679 93.85228918 579.20140523 96.60020177 575.9375 98.8125 C572.46706473 99.69230565 569.102036 99.67823812 565.53515625 99.64453125 C564.53922958 99.65264328 563.54330292 99.66075531 562.51719666 99.66911316 C560.41682621 99.67755524 558.31634593 99.6707528 556.21606445 99.6496582 C553.01233016 99.62509454 549.81464791 99.66976303 546.61132812 99.72070312 C544.56509913 99.72033259 542.51886602 99.71590961 540.47265625 99.70703125 C539.52141373 99.72433792 538.5701712 99.74164459 537.59010315 99.75947571 C536.23851357 99.73121956 536.23851357 99.73121956 534.85961914 99.70239258 C533.68430382 99.69856316 533.68430382 99.69856316 532.48524475 99.69465637 C529.53626936 98.67357393 528.86909631 97.66024325 526.89402771 95.31228638 C523.84172918 92.10837187 521.81902142 91.26552188 517.41162109 90.93275452 C515.17838245 90.89473039 512.9442893 90.8953599 510.7109375 90.92602539 C508.84767114 90.90986176 508.84767114 90.90986176 506.94676304 90.89337158 C503.47614638 90.8643405 500.00686649 90.87916171 496.53624654 90.90081334 C492.71246753 90.91687867 488.88890479 90.8921758 485.06517029 90.87290955 C478.29609029 90.84448355 471.52738796 90.84245131 464.75827026 90.85717773 C454.74262121 90.8788556 444.72734165 90.86016861 434.71171987 90.83347821 C414.81437263 90.78229611 394.9171858 90.78400802 375.01979351 90.79842567 C372.64969064 90.80013621 370.27958775 90.80183678 367.90948486 90.80352783 C366.110099 90.80481227 366.110099 90.80481227 364.27436191 90.80612266 C349.99684351 90.81556761 335.71932719 90.81395045 321.44180676 90.81226005 C317.76746176 90.81184384 314.09311675 90.81153822 310.41877174 90.81122112 C304.43848673 90.81068971 298.45820172 90.81011488 292.47791672 90.80950737 C291.73192733 90.80943229 290.98593794 90.80935722 290.21734282 90.80927986 C284.17795095 90.80867201 284.17795095 90.80867201 281.17869097 90.80835667 C269.91014293 90.80717274 258.64159498 90.80645956 247.37304688 90.80639648 C246.62916717 90.80638508 245.88528746 90.80637368 245.11886594 90.80636193 C224.1520823 90.80612113 203.18534104 90.81791013 182.21857044 90.84100511 C177.16540086 90.84649218 172.11223111 90.85108056 167.0590601 90.85502529 C166.00990679 90.85584634 166.00990679 90.85584634 164.93955847 90.85668397 C161.46479216 90.85937001 157.99002579 90.86193563 154.51525933 90.86441344 C146.51932638 90.87033099 138.52341575 90.88086287 130.52749145 90.89461368 C125.62950038 90.90201006 120.73151301 90.90527335 115.83351707 90.90737331 C113.579341 90.90920253 111.32516554 90.91277003 109.07099533 90.91823113 C106.00075911 90.92546156 102.93057962 90.92649223 99.8603363 90.92602539 C98.97921454 90.92962065 98.09809278 90.9332159 97.19027036 90.93692011 C82.83475463 90.9131226 82.83475463 90.9131226 78.61305714 88.46405983 C78.04657302 87.88630491 77.4800889 87.30855 76.8964386 86.71328735 C75.89380981 85.72065132 75.89380981 85.72065132 74.8709259 84.70796204 C74.17400131 83.9775621 73.47707672 83.24716217 72.7590332 82.49462891 C71.99682465 81.72876968 71.23461609 80.96291046 70.4493103 80.17384338 C67.9432443 77.64697151 65.46640147 75.09332044 62.98828125 72.5390625 C61.24629713 70.77452369 59.50230299 69.01196716 57.75639343 67.25131226 C53.16945433 62.6168841 48.60574859 57.96027558 44.04785156 53.29730225 C36.74991023 45.83371043 29.41551896 38.40591037 22.0786953 30.98057175 C19.52151776 28.38529421 16.97571645 25.77925214 14.43122864 23.17153931 C12.86370028 21.57713092 11.29589968 19.98299013 9.7277832 18.38916016 C9.02478592 17.66280869 8.32178864 16.93645721 7.5974884 16.18809509 C3.91748929 12.46662495 0.75000658 10.01903758 -4.0625 7.8125 C-5.125 5.3125 -5.125 5.3125 -5.0625 2.8125 C-3.54188901 0.41153528 -2.87462184 -0.26132926 0 0 Z M848.9375 48.8125 C848.9375 49.1425 848.9375 49.4725 848.9375 49.8125 C886.2275 49.8125 923.5175 49.8125 961.9375 49.8125 C961.9375 49.4825 961.9375 49.1525 961.9375 48.8125 C924.6475 48.8125 887.3575 48.8125 848.9375 48.8125 Z " fill="#537693" transform="translate(45.0625,24.1875)"/>
<path d="M0 0 C2.81713815 1.18138051 3.78859736 2.47089983 5 5.25 C5.6745963 7.09389657 6.31661074 8.94983222 6.9375 10.8125 C7.576875 11.121875 8.21625 11.43125 8.875 11.75 C11.43801718 13.07034218 11.6782337 14.2939674 12.9375 16.8125 C14.2528341 17.51401152 15.58867592 18.17775925 16.9375 18.8125 C19.1875 20.8125 19.1875 20.8125 20.9375 22.8125 C20.9375 23.4725 20.9375 24.1325 20.9375 24.8125 C21.5975 24.8125 22.2575 24.8125 22.9375 24.8125 C22.9375 25.4725 22.9375 26.1325 22.9375 26.8125 C23.81148437 27.19921875 23.81148437 27.19921875 24.703125 27.59375 C27.1177903 28.91084017 28.75490177 30.36338384 30.6875 32.3125 C31.60789062 33.22515625 31.60789062 33.22515625 32.546875 34.15625 C33.9375 35.8125 33.9375 35.8125 33.9375 37.8125 C34.9275 38.1425 35.9175 38.4725 36.9375 38.8125 C36.9375 39.4725 36.9375 40.1325 36.9375 40.8125 C37.5975 40.8125 38.2575 40.8125 38.9375 40.8125 C38.9375 41.4725 38.9375 42.1325 38.9375 42.8125 C40.2575 43.4725 41.5775 44.1325 42.9375 44.8125 C42.9375 45.4725 42.9375 46.1325 42.9375 46.8125 C43.5975 46.8125 44.2575 46.8125 44.9375 46.8125 C44.9375 47.4725 44.9375 48.1325 44.9375 48.8125 C45.5975 48.8125 46.2575 48.8125 46.9375 48.8125 C46.9375 49.4725 46.9375 50.1325 46.9375 50.8125 C47.5975 50.8125 48.2575 50.8125 48.9375 50.8125 C51.0625 52.6875 51.0625 52.6875 52.9375 54.8125 C52.9375 55.4725 52.9375 56.1325 52.9375 56.8125 C53.494375 57.039375 54.05125 57.26625 54.625 57.5 C57.59909588 59.18800036 59.65758865 61.27926517 61.9375 63.8125 C61.9375 64.4725 61.9375 65.1325 61.9375 65.8125 C63.4225 66.3075 63.4225 66.3075 64.9375 66.8125 C64.9375 67.4725 64.9375 68.1325 64.9375 68.8125 C65.5975 68.8125 66.2575 68.8125 66.9375 68.8125 C68.3828125 70.31640625 68.3828125 70.31640625 70.0625 72.375 C73.23062862 76.13006613 76.63180236 79.26515657 80.43359375 82.3671875 C80.92988281 82.84414062 81.42617187 83.32109375 81.9375 83.8125 C81.9375 84.4725 81.9375 85.1325 81.9375 85.8125 C241.6575 85.8125 401.3775 85.8125 565.9375 85.8125 C566.5975 84.4925 567.2575 83.1725 567.9375 81.8125 C569.4225 81.3175 569.4225 81.3175 570.9375 80.8125 C571.22625 80.214375 571.515 79.61625 571.8125 79 C573.30463677 76.09862296 575.38395703 74.85533438 577.9375 72.8125 C579.8042705 70.72042961 581.6050424 68.58675004 583.38671875 66.421875 C583.89847656 65.89078125 584.41023437 65.3596875 584.9375 64.8125 C585.5975 64.8125 586.2575 64.8125 586.9375 64.8125 C587.19184814 64.23653076 587.44619629 63.66056152 587.70825195 63.06713867 C590.04019466 58.78998059 593.7265921 55.56937115 597.125 52.125 C597.86814453 51.34060547 598.61128906 50.55621094 599.37695312 49.74804688 C600.11236328 49.00232422 600.84777344 48.25660156 601.60546875 47.48828125 C602.26828857 46.80677002 602.9311084 46.12525879 603.61401367 45.4230957 C608.95633134 41.71990461 616.73801816 42.66997598 623.00470352 42.68386555 C624.00802212 42.68211251 625.01134071 42.68035947 626.0450629 42.67855331 C629.41598099 42.67389154 632.78685598 42.67635928 636.15777588 42.67878723 C638.59531176 42.67691937 641.03284735 42.67461876 643.47038245 42.67192191 C648.77461099 42.66707508 654.07882697 42.66535002 659.38305664 42.66637802 C667.27039944 42.66790293 675.15773214 42.66374134 683.04507298 42.6585034 C697.94925654 42.64883206 712.85343666 42.64601927 727.75762299 42.64544634 C739.26248564 42.64498696 750.76734695 42.64292948 762.27220917 42.63974571 C765.58265678 42.6388482 768.89310439 42.63795838 772.20355201 42.63707083 C773.02649864 42.63684979 773.84944527 42.63662874 774.69732967 42.63640099 C797.8436616 42.63024716 820.98999306 42.62630041 844.13632584 42.62674427 C845.00897562 42.62675985 845.88162541 42.62677543 846.78071913 42.62679148 C851.20380353 42.62687459 855.62688793 42.62697363 860.04997233 42.62707619 C860.92843676 42.62709613 861.80690119 42.62711608 862.71198576 42.62713663 C864.48845209 42.62717706 866.26491843 42.62721886 868.04138477 42.62726202 C895.7010977 42.62787523 923.36079839 42.62035957 951.02050781 42.60668945 C982.08383432 42.59134356 1013.14715278 42.58272226 1044.21048331 42.58365268 C1047.51967351 42.58372731 1050.8288637 42.58377601 1054.13805389 42.58380699 C1054.95288491 42.58381865 1055.76771592 42.5838303 1056.60723878 42.58384231 C1069.74201881 42.58387313 1082.87678824 42.57747695 1096.01156512 42.56887473 C1109.19896989 42.5604163 1122.38635909 42.5593941 1135.57376507 42.56598405 C1143.41608843 42.56969128 1151.25836459 42.56781247 1159.100683 42.55804171 C1164.943572 42.5513746 1170.78642363 42.55506274 1176.62931225 42.56291493 C1179.00262687 42.56446393 1181.37594652 42.56258186 1183.74925521 42.55705485 C1186.95747669 42.55007408 1190.16544854 42.55522538 1193.37366104 42.56361103 C1194.31034288 42.55864285 1195.24702471 42.55367467 1196.21209085 42.54855594 C1197.0627553 42.55330675 1197.91341975 42.55805756 1198.78986192 42.56295234 C1199.89115356 42.56282001 1199.89115356 42.56282001 1201.01469351 42.562685 C1202.9375 42.8125 1202.9375 42.8125 1205.9375 44.8125 C1008.5975 45.1425 811.2575 45.4725 607.9375 45.8125 C607.9375 46.4725 607.9375 47.1325 607.9375 47.8125 C609.5875 47.4825 611.2375 47.1525 612.9375 46.8125 C613.2675 47.8025 613.5975 48.7925 613.9375 49.8125 C613.2775 50.1425 612.6175 50.4725 611.9375 50.8125 C611.9375 51.4725 611.9375 52.1325 611.9375 52.8125 C612.9275 53.4725 613.9175 54.1325 614.9375 54.8125 C615.78804016 56.73699951 615.78804016 56.73699951 615.9375 58.8125 C614.93229675 60.43243408 614.93229675 60.43243408 613.32885742 62.02050781 C612.73461472 62.62082825 612.14037201 63.22114868 611.52812195 63.83966064 C610.87302139 64.47522888 610.21792084 65.11079712 609.54296875 65.765625 C608.54913933 66.75595734 608.54913933 66.75595734 607.53523254 67.76629639 C606.13113123 69.16064621 604.72100641 70.54895236 603.30541992 71.93164062 C601.13201219 74.0556472 598.97783831 76.1977439 596.82617188 78.34375 C595.46202678 79.69380987 594.09682724 81.04280529 592.73046875 82.390625 C592.08144089 83.03429016 591.43241302 83.67795532 590.76371765 84.34112549 C589.85816887 85.22269318 589.85816887 85.22269318 588.93432617 86.12207031 C588.40280441 86.64295227 587.87128265 87.16383423 587.32365417 87.70050049 C585.9375 88.8125 585.9375 88.8125 583.9375 88.8125 C583.73125 89.34875 583.525 89.885 583.3125 90.4375 C581.33551679 93.85228918 579.20140523 96.60020177 575.9375 98.8125 C572.46706473 99.69230565 569.102036 99.67823812 565.53515625 99.64453125 C564.53922958 99.65264328 563.54330292 99.66075531 562.51719666 99.66911316 C560.41682621 99.67755524 558.31634593 99.6707528 556.21606445 99.6496582 C553.01233016 99.62509454 549.81464791 99.66976303 546.61132812 99.72070312 C544.56509913 99.72033259 542.51886602 99.71590961 540.47265625 99.70703125 C539.52141373 99.72433792 538.5701712 99.74164459 537.59010315 99.75947571 C536.23851357 99.73121956 536.23851357 99.73121956 534.85961914 99.70239258 C533.68430382 99.69856316 533.68430382 99.69856316 532.48524475 99.69465637 C529.53626936 98.67357393 528.86909631 97.66024325 526.89402771 95.31228638 C523.84172918 92.10837187 521.81902142 91.26552188 517.41162109 90.93275452 C515.17838245 90.89473039 512.9442893 90.8953599 510.7109375 90.92602539 C508.84767114 90.90986176 508.84767114 90.90986176 506.94676304 90.89337158 C503.47614638 90.8643405 500.00686649 90.87916171 496.53624654 90.90081334 C492.71246753 90.91687867 488.88890479 90.8921758 485.06517029 90.87290955 C478.29609029 90.84448355 471.52738796 90.84245131 464.75827026 90.85717773 C454.74262121 90.8788556 444.72734165 90.86016861 434.71171987 90.83347821 C414.81437263 90.78229611 394.9171858 90.78400802 375.01979351 90.79842567 C372.64969064 90.80013621 370.27958775 90.80183678 367.90948486 90.80352783 C366.110099 90.80481227 366.110099 90.80481227 364.27436191 90.80612266 C349.99684351 90.81556761 335.71932719 90.81395045 321.44180676 90.81226005 C317.76746176 90.81184384 314.09311675 90.81153822 310.41877174 90.81122112 C304.43848673 90.81068971 298.45820172 90.81011488 292.47791672 90.80950737 C291.73192733 90.80943229 290.98593794 90.80935722 290.21734282 90.80927986 C284.17795095 90.80867201 284.17795095 90.80867201 281.17869097 90.80835667 C269.91014293 90.80717274 258.64159498 90.80645956 247.37304688 90.80639648 C246.62916717 90.80638508 245.88528746 90.80637368 245.11886594 90.80636193 C224.1520823 90.80612113 203.18534104 90.81791013 182.21857044 90.84100511 C177.16540086 90.84649218 172.11223111 90.85108056 167.0590601 90.85502529 C166.00990679 90.85584634 166.00990679 90.85584634 164.93955847 90.85668397 C161.46479216 90.85937001 157.99002579 90.86193563 154.51525933 90.86441344 C146.51932638 90.87033099 138.52341575 90.88086287 130.52749145 90.89461368 C125.62950038 90.90201006 120.73151301 90.90527335 115.83351707 90.90737331 C113.579341 90.90920253 111.32516554 90.91277003 109.07099533 90.91823113 C106.00075911 90.92546156 102.93057962 90.92649223 99.8603363 90.92602539 C98.97921454 90.92962065 98.09809278 90.9332159 97.19027036 90.93692011 C82.83475463 90.9131226 82.83475463 90.9131226 78.61305714 88.46405983 C78.04657302 87.88630491 77.4800889 87.30855 76.8964386 86.71328735 C75.89380981 85.72065132 75.89380981 85.72065132 74.8709259 84.70796204 C74.17400131 83.9775621 73.47707672 83.24716217 72.7590332 82.49462891 C71.99682465 81.72876968 71.23461609 80.96291046 70.4493103 80.17384338 C67.9432443 77.64697151 65.46640147 75.09332044 62.98828125 72.5390625 C61.24629713 70.77452369 59.50230299 69.01196716 57.75639343 67.25131226 C53.16945433 62.6168841 48.60574859 57.96027558 44.04785156 53.29730225 C36.74991023 45.83371043 29.41551896 38.40591037 22.0786953 30.98057175 C19.52151776 28.38529421 16.97571645 25.77925214 14.43122864 23.17153931 C12.86370028 21.57713092 11.29589968 19.98299013 9.7277832 18.38916016 C9.02478592 17.66280869 8.32178864 16.93645721 7.5974884 16.18809509 C3.91748929 12.46662495 0.75000658 10.01903758 -4.0625 7.8125 C-5.125 5.3125 -5.125 5.3125 -5.0625 2.8125 C-3.54188901 0.41153528 -2.87462184 -0.26132926 0 0 Z " fill="#617F99" transform="translate(45.0625,24.1875)"/>
<path d="M0 0 C1.27151411 0.00394052 1.27151411 0.00394052 2.56871536 0.00796065 C3.46470726 0.0068068 4.36069916 0.00565296 5.28384233 0.00446415 C8.32576802 0.00178959 11.36764216 0.0063265 14.40956524 0.01075396 C16.59657262 0.01031843 18.78357994 0.00944386 20.97058699 0.00816479 C27.01116835 0.00591627 33.05173217 0.00994598 39.09231129 0.01494285 C45.59474028 0.01924207 52.09716819 0.01780131 58.5995982 0.01704058 C69.87574453 0.01634181 81.15188546 0.01963054 92.42803028 0.02527842 C104.25862113 0.03118885 116.08920967 0.03504303 127.91980198 0.03613123 C128.65449703 0.03619997 129.38919209 0.03626871 130.14615063 0.03633953 C133.87706547 0.03667785 137.60798032 0.03697924 141.33889516 0.03726641 C167.78737509 0.03936864 194.23585202 0.04611108 220.68433025 0.05556902 C246.38387436 0.06474857 272.08341765 0.07183457 297.78296307 0.07607684 C298.57468117 0.07620836 299.36639928 0.07633989 300.18210885 0.0764754 C308.13263118 0.07779388 316.08315352 0.0790697 324.03367587 0.08031426 C340.23082092 0.08285069 356.42796592 0.08567195 372.62511089 0.08866534 C373.74226865 0.08887127 373.74226865 0.08887127 374.88199526 0.08908137 C424.64415182 0.09828709 474.40630662 0.11415363 524.16846111 0.13100848 C524.16846111 0.79100848 524.16846111 1.45100848 524.16846111 2.13100848 C520.34448054 3.3653921 516.54255773 3.26856006 512.57036617 3.2540563 C511.79754077 3.25521015 511.02471537 3.25636399 510.22847101 3.2575528 C507.6235871 3.26021207 505.01876427 3.25570294 502.41388348 3.25126299 C500.53364694 3.25169883 498.65341047 3.25257398 496.77317432 3.25385216 C491.59448791 3.25609456 486.41582208 3.25207929 481.2371383 3.2470741 C475.65706104 3.24276615 470.076985 3.24421627 464.49690655 3.24497637 C454.82506689 3.24550139 445.15323396 3.24235691 435.48139599 3.23673853 C421.49744371 3.22862051 407.51349469 3.226008 393.5295403 3.22475054 C370.84293496 3.2225605 348.15633382 3.21591027 325.46973065 3.20644793 C303.42838969 3.19726532 281.38704969 3.19018081 259.34570721 3.18594012 C258.32680321 3.18574283 258.32680321 3.18574283 257.28731528 3.18554155 C250.4658868 3.18422305 243.64445832 3.18294723 236.82302982 3.18170269 C179.60483775 3.17125951 122.3866496 3.15361131 65.16846111 3.13100848 C64.87971111 3.77038348 64.59096111 4.40975848 64.29346111 5.06850848 C62.91426107 7.59704189 61.68678177 7.87184815 59.16846111 9.13100848 C58.50846111 10.45100848 57.84846111 11.77100848 57.16846111 13.13100848 C38.02846111 13.13100848 18.88846111 13.13100848 -0.83153889 13.13100848 C-0.17153889 12.80100848 0.48846111 12.47100848 1.16846111 12.13100848 C-0.15153889 10.81100848 -1.47153889 9.49100848 -2.83153889 8.13100848 C-2.17153889 6.15100848 -1.51153889 4.17100848 -0.83153889 2.13100848 C-2.81153889 2.79100848 -4.79153889 3.45100848 -6.83153889 4.13100848 C-6.83153889 -1.09283501 -4.62068703 0.01362809 0 0 Z " fill="#5F8CAE" transform="translate(658.8315388858318,68.8689915239811)"/>
<path d="M0 0 C2.81713815 1.18138051 3.78859736 2.47089983 5 5.25 C5.6745963 7.09389657 6.31661074 8.94983222 6.9375 10.8125 C7.576875 11.121875 8.21625 11.43125 8.875 11.75 C11.43801718 13.07034218 11.6782337 14.2939674 12.9375 16.8125 C14.2528341 17.51401152 15.58867592 18.17775925 16.9375 18.8125 C19.1875 20.8125 19.1875 20.8125 20.9375 22.8125 C20.9375 23.4725 20.9375 24.1325 20.9375 24.8125 C21.5975 24.8125 22.2575 24.8125 22.9375 24.8125 C22.9375 25.4725 22.9375 26.1325 22.9375 26.8125 C23.81148437 27.19921875 23.81148437 27.19921875 24.703125 27.59375 C27.1177903 28.91084017 28.75490177 30.36338384 30.6875 32.3125 C31.60789062 33.22515625 31.60789062 33.22515625 32.546875 34.15625 C33.9375 35.8125 33.9375 35.8125 33.9375 37.8125 C34.9275 38.1425 35.9175 38.4725 36.9375 38.8125 C36.9375 39.4725 36.9375 40.1325 36.9375 40.8125 C37.5975 40.8125 38.2575 40.8125 38.9375 40.8125 C38.9375 41.4725 38.9375 42.1325 38.9375 42.8125 C40.2575 43.4725 41.5775 44.1325 42.9375 44.8125 C42.9375 45.4725 42.9375 46.1325 42.9375 46.8125 C43.5975 46.8125 44.2575 46.8125 44.9375 46.8125 C44.9375 47.4725 44.9375 48.1325 44.9375 48.8125 C45.5975 48.8125 46.2575 48.8125 46.9375 48.8125 C46.9375 49.4725 46.9375 50.1325 46.9375 50.8125 C47.5975 50.8125 48.2575 50.8125 48.9375 50.8125 C51.0625 52.6875 51.0625 52.6875 52.9375 54.8125 C52.9375 55.4725 52.9375 56.1325 52.9375 56.8125 C53.494375 57.039375 54.05125 57.26625 54.625 57.5 C57.59909588 59.18800036 59.65758865 61.27926517 61.9375 63.8125 C61.9375 64.4725 61.9375 65.1325 61.9375 65.8125 C63.4225 66.3075 63.4225 66.3075 64.9375 66.8125 C64.9375 67.4725 64.9375 68.1325 64.9375 68.8125 C65.5975 68.8125 66.2575 68.8125 66.9375 68.8125 C68.3828125 70.31640625 68.3828125 70.31640625 70.0625 72.375 C73.23062862 76.13006613 76.63180236 79.26515657 80.43359375 82.3671875 C80.92988281 82.84414062 81.42617187 83.32109375 81.9375 83.8125 C81.9375 84.4725 81.9375 85.1325 81.9375 85.8125 C82.7821689 85.81157821 83.62683781 85.81065641 84.49710274 85.80970669 C112.01889668 85.78018891 139.5406925 85.76106614 167.0625 85.75 C168.11173189 85.7495657 169.16096377 85.74913139 170.24199057 85.74868393 C225.99665801 85.7262279 281.74756331 85.77983341 337.5 86.3125 C338.75265907 86.32445782 340.00531815 86.33641563 341.29593658 86.34873581 C355.84328972 86.48885045 370.39047389 86.64177749 384.9375 86.8125 C384.9375 87.1425 384.9375 87.4725 384.9375 87.8125 C382.9575 87.8125 380.9775 87.8125 378.9375 87.8125 C378.9375 88.4725 378.9375 89.1325 378.9375 89.8125 C426.4575 89.8125 473.9775 89.8125 522.9375 89.8125 C522.9375 90.1425 522.9375 90.4725 522.9375 90.8125 C467.92905609 90.83538331 412.92061266 90.85300686 357.91216493 90.86356533 C351.419552 90.86481605 344.92693909 90.86611037 338.43432617 90.86743164 C336.49546307 90.86782511 336.49546307 90.86782511 334.51743101 90.86822652 C313.58166372 90.87257914 292.64589917 90.88046446 271.7101335 90.8896528 C250.23194452 90.89900065 228.75375697 90.90455802 207.27556604 90.90658849 C194.01984808 90.90796136 180.76413788 90.91229924 167.50842231 90.92041647 C158.42144494 90.92569787 149.33447159 90.92730111 140.2474928 90.92600138 C135.00295743 90.92536019 129.75843563 90.92635086 124.51390266 90.93170547 C119.71157706 90.93657282 114.90927413 90.93681668 110.10694747 90.93339889 C108.3705938 90.93297649 106.63423872 90.93424405 104.89788783 90.93738318 C82.94101769 90.97476722 82.94101769 90.97476722 78.61305714 88.46405983 C78.04657302 87.88630491 77.4800889 87.30855 76.8964386 86.71328735 C75.89380981 85.72065132 75.89380981 85.72065132 74.8709259 84.70796204 C74.17400131 83.9775621 73.47707672 83.24716217 72.7590332 82.49462891 C71.99682465 81.72876968 71.23461609 80.96291046 70.4493103 80.17384338 C67.9432443 77.64697151 65.46640147 75.09332044 62.98828125 72.5390625 C61.24629713 70.77452369 59.50230299 69.01196716 57.75639343 67.25131226 C53.16945433 62.6168841 48.60574859 57.96027558 44.04785156 53.29730225 C36.74991023 45.83371043 29.41551896 38.40591037 22.0786953 30.98057175 C19.52151776 28.38529421 16.97571645 25.77925214 14.43122864 23.17153931 C12.86370028 21.57713092 11.29589968 19.98299013 9.7277832 18.38916016 C9.02478592 17.66280869 8.32178864 16.93645721 7.5974884 16.18809509 C3.91748929 12.46662495 0.75000658 10.01903758 -4.0625 7.8125 C-5.125 5.3125 -5.125 5.3125 -5.0625 2.8125 C-3.54188901 0.41153528 -2.87462184 -0.26132926 0 0 Z " fill="#607385" transform="translate(45.0625,24.1875)"/>
<path d="M0 0 C2.625 0.375 2.625 0.375 5 1 C5.33 2.98 5.66 4.96 6 7 C5.34 7.350625 4.68 7.70125 4 8.0625 C-2.94228744 12.54606064 -8.71983957 18.58806262 -14.46655273 24.47998047 C-15.91280805 25.9525319 -17.35913597 27.42501203 -18.80552673 28.89743042 C-19.55942122 29.66679806 -20.3133157 30.4361657 -21.09005547 31.2288475 C-25.11973295 35.33556083 -29.16774887 39.4241534 -33.21289062 43.515625 C-38.34354681 48.70632674 -43.46837186 53.90236681 -48.5715332 59.12011719 C-52.71305164 63.35366015 -56.87386782 67.56734973 -61.04832649 71.76840591 C-62.63072671 73.36806419 -64.20593925 74.97486663 -65.77364922 76.58892441 C-67.96553437 78.84367533 -70.1812371 81.07218092 -72.40405273 83.29638672 C-73.0417308 83.96439804 -73.67940887 84.63240936 -74.33641052 85.32066345 C-74.95145447 85.92615524 -75.56649841 86.53164703 -76.20018005 87.15548706 C-76.71982047 87.68380064 -77.23946089 88.21211422 -77.77484798 88.7564373 C-85.54827047 93.10074195 -97.77251587 91.13607018 -106.52064514 91.12025452 C-108.31445135 91.1206909 -110.1082575 91.12156704 -111.90206331 91.12284368 C-116.8186188 91.12507547 -121.73515244 91.12108537 -126.65170515 91.11606562 C-131.958345 91.11174241 -137.26498364 91.11320888 -142.57162476 91.1139679 C-151.7615545 91.11449194 -160.95147715 91.11135757 -170.14140511 91.10573006 C-183.42845744 91.09759894 -196.71550635 91.09499818 -210.00256091 91.09374207 C-231.56054711 91.09155408 -253.11852952 91.08490087 -274.67651367 91.07543945 C-295.61661765 91.06625878 -316.55672059 91.05918115 -337.49682617 91.05493164 C-338.78783075 91.05466892 -340.07883532 91.05440619 -341.40896124 91.05413551 C-347.88562838 91.05283046 -354.36229553 91.05156675 -360.83896267 91.05032361 C-414.55931107 91.03995889 -468.27965535 91.02234746 -522 91 C-522 90.67 -522 90.34 -522 90 C-458.64 89.67 -395.28 89.34 -330 89 C-332.31 88.67 -334.62 88.34 -337 88 C-337 87.67 -337 87.34 -337 87 C-282.48998914 86.13664709 -227.99360884 85.86469907 -173.47726285 85.92797339 C-163.34762262 85.9395092 -153.21798136 85.94473631 -143.08833611 85.94967639 C-122.39221671 85.95989859 -101.69610923 85.97727212 -81 86 C-81 85.34 -81 84.68 -81 84 C-79.53125 82.58984375 -79.53125 82.58984375 -77.5 80.9375 C-73.45154453 77.52296638 -70.06152129 73.77659612 -66.6640625 69.72265625 C-66.11492187 69.15417969 -65.56578125 68.58570312 -65 68 C-64.34 68 -63.68 68 -63 68 C-62.67 67.01 -62.34 66.02 -62 65 C-61.34 65 -60.68 65 -60 65 C-60 64.34 -60 63.68 -60 63 C-55.69767442 58.23255814 -55.69767442 58.23255814 -52 57 C-52 56.34 -52 55.68 -52 55 C-50.125 52.875 -50.125 52.875 -48 51 C-47.34 51 -46.68 51 -46 51 C-46 50.34 -46 49.68 -46 49 C-45.34 49 -44.68 49 -44 49 C-44 48.34 -44 47.68 -44 47 C-43.34 47 -42.68 47 -42 47 C-41.34 45.68 -40.68 44.36 -40 43 C-39.34 43 -38.68 43 -38 43 C-38 42.34 -38 41.68 -38 41 C-37.34 41 -36.68 41 -36 41 C-35.34 39.68 -34.68 38.36 -34 37 C-33.34 37 -32.68 37 -32 37 C-32 36.34 -32 35.68 -32 35 C-31.34 35 -30.68 35 -30 35 C-30 34.34 -30 33.68 -30 33 C-29.34 33 -28.68 33 -28 33 C-28 32.34 -28 31.68 -28 31 C-27.34 31 -26.68 31 -26 31 C-25.7525 30.38125 -25.505 29.7625 -25.25 29.125 C-23.76259631 26.59641373 -22.56321991 26.28160996 -20 25 C-19.29848848 23.6846659 -18.63474075 22.34882408 -18 21 C-16 18.75 -16 18.75 -14 17 C-13.34 17 -12.68 17 -12 17 C-11.7525 16.38125 -11.505 15.7625 -11.25 15.125 C-9.76259631 12.59641373 -8.56321991 12.28160996 -6 11 C-4.67716368 8.8687637 -3.89342637 6.72024423 -3 4.375 C-2 2 -2 2 0 0 Z " fill="#4E667D" transform="translate(1856,24)"/>
<path d="M0 0 C1.75539345 0.00333092 1.75539345 0.00333092 3.54624939 0.00672913 C4.19013107 0.0065831 4.83401276 0.00643707 5.49740601 0.00628662 C7.63473327 0.00698567 9.77197438 0.01477761 11.9092865 0.02259827 C13.3875931 0.02446248 14.86590032 0.02588637 16.34420776 0.02688599 C20.24211827 0.03071093 24.13999174 0.040541 28.03788757 0.05158997 C32.01259358 0.0618046 35.98730554 0.06638372 39.96202087 0.07142639 C47.76607425 0.0821633 55.57009707 0.09923942 63.37413025 0.12025452 C63.37413025 0.78025452 63.37413025 1.44025452 63.37413025 2.12025452 C65.02413025 2.45025452 66.67413025 2.78025452 68.37413025 3.12025452 C66.95639563 6.66459106 65.69800787 7.4583157 62.37413025 9.12025452 C61.71413025 10.44025452 61.05413025 11.76025452 60.37413025 13.12025452 C41.23413025 13.12025452 22.09413025 13.12025452 2.37413025 13.12025452 C3.03413025 12.79025452 3.69413025 12.46025452 4.37413025 12.12025452 C3.05413025 10.80025452 1.73413025 9.48025452 0.37413025 8.12025452 C1.03413025 6.14025452 1.69413025 4.16025452 2.37413025 2.12025452 C0.39413025 2.78025452 -1.58586975 3.44025452 -3.62586975 4.12025452 C-3.62586975 0.16605059 -3.62586975 0.16605059 0 0 Z " fill="#6284A0" transform="translate(655.6258697509766,68.87974548339844)"/>
<path d="M0 0 C1.50658148 -0.00262956 1.50658148 -0.00262956 3.04359895 -0.00531223 C6.4301969 -0.00998728 9.8167522 -0.00750287 13.20335197 -0.00507832 C15.64741135 -0.00694552 18.09147042 -0.00924586 20.53552902 -0.01194364 C25.86020778 -0.01679597 31.18487401 -0.01851441 36.50955391 -0.01748753 C44.42733789 -0.01596426 52.34511178 -0.02012059 60.2628938 -0.02536215 C75.22453176 -0.03503987 90.1861663 -0.03784652 105.14780702 -0.03841921 C116.69753064 -0.03887841 128.24725291 -0.04093499 139.79697609 -0.04411983 C143.1191835 -0.04501734 146.44139091 -0.04590716 149.76359832 -0.04679471 C150.58945189 -0.04701576 151.41530545 -0.04723681 152.26618489 -0.04746456 C175.49896423 -0.05361964 198.73174312 -0.05756502 221.96452332 -0.05712128 C223.27874462 -0.05709791 223.27874462 -0.05709791 224.61951586 -0.05707407 C229.06041501 -0.05699096 233.50131416 -0.05689192 237.94221331 -0.05678936 C238.8242283 -0.05676942 239.70624329 -0.05674947 240.61498601 -0.05672892 C242.39863386 -0.05668848 244.18228171 -0.05664669 245.96592956 -0.05660353 C273.73272818 -0.05599042 301.49951461 -0.06350355 329.26630974 -0.07717609 C360.4446192 -0.09252208 391.62292065 -0.10114326 422.80123413 -0.10021287 C426.12281283 -0.10013824 429.44439153 -0.10008953 432.76597023 -0.10005856 C433.58386054 -0.1000469 434.40175086 -0.10003525 435.24442573 -0.10002324 C448.42952665 -0.09999241 461.61461701 -0.10638915 474.79971479 -0.11499082 C488.03889318 -0.12344947 501.27805606 -0.12447129 514.51723565 -0.1178815 C522.39065369 -0.11417421 530.26402472 -0.11605319 538.13743782 -0.12582384 C544.00355758 -0.13249093 549.86964011 -0.12880281 555.73575948 -0.12095062 C558.11855508 -0.1194016 560.5013557 -0.12128375 562.88414539 -0.12681069 C566.10518181 -0.13379137 569.32596959 -0.12864024 572.54699707 -0.12025452 C573.48745929 -0.1252227 574.42792152 -0.13019088 575.39688259 -0.13530961 C576.25092633 -0.1305588 577.10497007 -0.12580798 577.98489392 -0.12091321 C579.09060031 -0.12104554 579.09060031 -0.12104554 580.21864421 -0.12118055 C582.14765739 0.12863445 582.14765739 0.12863445 585.14765739 2.12863445 C583.88382642 2.12961126 582.61999545 2.13058807 581.31786656 2.13159448 C525.63943785 2.17482452 469.96101318 2.22174968 414.28260612 2.28761578 C413.4401353 2.28861134 412.59766448 2.28960691 411.72966424 2.29063264 C393.42208235 2.31228937 375.11450132 2.33461193 356.80692108 2.35762073 C347.82935417 2.3688996 338.85178708 2.38003129 329.87421989 2.39108562 C328.980827 2.39218819 328.08743411 2.39329076 327.1669687 2.39442673 C298.19085009 2.43011809 269.21473264 2.45608337 240.23859993 2.47702414 C210.47075977 2.49858829 180.70294561 2.5299263 150.93512932 2.57362558 C146.7340885 2.57978815 142.53304753 2.58583857 138.33200645 2.59182072 C137.09172501 2.59359204 137.09172501 2.59359204 135.82638738 2.59539915 C122.49708929 2.61414676 109.16780366 2.62254012 95.838494 2.62709569 C82.4496808 2.63189133 69.06091534 2.64751363 55.67212775 2.67430011 C47.71006497 2.68989744 39.74809625 2.69708094 31.78601902 2.69240374 C25.85190204 2.68982968 19.91788652 2.70275333 13.9837974 2.72186997 C11.57459591 2.72717091 9.16537691 2.72733854 6.75617543 2.72203008 C3.49692265 2.71557663 0.23824123 2.72732503 -3.02096367 2.7438736 C-3.96985419 2.7375969 -4.91874471 2.73132021 -5.89638948 2.72485331 C-10.91818926 2.73400404 -10.91818926 2.73400404 -15.46680379 4.65268201 C-15.9240316 5.13974631 -16.38125941 5.62681062 -16.85234261 6.12863445 C-17.51234261 5.79863445 -18.17234261 5.46863445 -18.85234261 5.12863445 C-13.59036056 -0.91290049 -7.48333644 -0.01643617 0 0 Z " fill="#2E5D81" transform="translate(665.8523426055908,66.87136554718018)"/>
<path d="M0 0 C2.625 0.375 2.625 0.375 5 1 C5.495 3.97 5.495 3.97 6 7 C5.34 7.350625 4.68 7.70125 4 8.0625 C-2.92608291 12.53559522 -8.72542748 18.57959073 -14.51757812 24.40405273 C-15.22100342 25.107332 -15.92442871 25.81061127 -16.64916992 26.53520203 C-18.94557845 28.83230046 -21.2384366 31.13290738 -23.53125 33.43359375 C-25.13385467 35.03806588 -26.73668204 36.6423156 -28.33972168 38.24635315 C-32.5372966 42.44772743 -36.73185841 46.65209724 -40.92578125 50.8571167 C-45.21431576 55.15592108 -49.5057188 59.45185979 -53.796875 63.74804688 C-62.20071265 72.16257628 -70.60136714 80.58027586 -79 89 C-81 86 -81 86 -81 84 C-79.53125 82.58984375 -79.53125 82.58984375 -77.5 80.9375 C-73.45154453 77.52296638 -70.06152129 73.77659612 -66.6640625 69.72265625 C-66.11492187 69.15417969 -65.56578125 68.58570312 -65 68 C-64.34 68 -63.68 68 -63 68 C-62.505 66.515 -62.505 66.515 -62 65 C-61.34 65 -60.68 65 -60 65 C-60 64.34 -60 63.68 -60 63 C-55.69767442 58.23255814 -55.69767442 58.23255814 -52 57 C-52 56.34 -52 55.68 -52 55 C-50.125 52.875 -50.125 52.875 -48 51 C-47.34 51 -46.68 51 -46 51 C-46 50.34 -46 49.68 -46 49 C-45.34 49 -44.68 49 -44 49 C-44 48.34 -44 47.68 -44 47 C-43.34 47 -42.68 47 -42 47 C-41.34 45.68 -40.68 44.36 -40 43 C-39.34 43 -38.68 43 -38 43 C-38 42.34 -38 41.68 -38 41 C-37.34 41 -36.68 41 -36 41 C-35.34 39.68 -34.68 38.36 -34 37 C-33.34 37 -32.68 37 -32 37 C-32 36.34 -32 35.68 -32 35 C-31.34 35 -30.68 35 -30 35 C-30 34.34 -30 33.68 -30 33 C-29.34 33 -28.68 33 -28 33 C-28 32.34 -28 31.68 -28 31 C-27.34 31 -26.68 31 -26 31 C-25.7525 30.38125 -25.505 29.7625 -25.25 29.125 C-23.76259631 26.59641373 -22.56321991 26.28160996 -20 25 C-19.29848848 23.6846659 -18.63474075 22.34882408 -18 21 C-16 18.75 -16 18.75 -14 17 C-13.34 17 -12.68 17 -12 17 C-11.7525 16.38125 -11.505 15.7625 -11.25 15.125 C-9.76259631 12.59641373 -8.56321991 12.28160996 -6 11 C-4.67716368 8.8687637 -3.89342637 6.72024423 -3 4.375 C-2 2 -2 2 0 0 Z " fill="#5D7083" transform="translate(1856,24)"/>
<path d="M0 0 C0 1.32 0 2.64 0 4 C-8.47078378 5.20246498 -16.90804225 5.13396769 -25.44360352 5.11352539 C-27.10008238 5.11324295 -28.75656137 5.11340237 -30.41304016 5.1139679 C-34.8875822 5.11425365 -39.36209719 5.10839289 -43.83663297 5.10139394 C-48.52112772 5.09512336 -53.20562316 5.09455368 -57.89012146 5.09336853 C-66.7509027 5.09026612 -75.61167154 5.08206745 -84.47244734 5.07201904 C-94.56436077 5.06082401 -104.65627481 5.05533892 -114.74819291 5.05032361 C-135.49880218 5.0398839 -156.24940031 5.02230562 -177 5 C-177 4.67 -177 4.34 -177 4 C-176.1775882 3.99191315 -175.35517639 3.98382629 -174.50784302 3.97549438 C-166.76763178 3.89764119 -159.02761158 3.81037911 -151.28763008 3.71247292 C-147.30816273 3.66246894 -143.32872247 3.61613953 -139.34912109 3.578125 C-135.51053118 3.54132363 -131.6721656 3.49497825 -127.83376694 3.44193649 C-126.36734822 3.42336503 -124.90088137 3.40826728 -123.43439102 3.39665604 C-121.38457379 3.37984012 -119.33527344 3.35081802 -117.28564453 3.31884766 C-115.533582 3.29886215 -115.533582 3.29886215 -113.74612427 3.2784729 C-110.85629428 3.27773433 -110.85629428 3.27773433 -109 1 C-107.10684299 0.73828697 -107.10684299 0.73828697 -104.75550842 0.7215271 C-103.42003716 0.70478188 -103.42003716 0.70478188 -102.05758667 0.68769836 C-101.07831207 0.68553818 -100.09903748 0.68337799 -99.09008789 0.68115234 C-97.54606041 0.66608391 -97.54606041 0.66608391 -95.97084045 0.65071106 C-92.55478491 0.61972387 -89.13880839 0.60279781 -85.72265625 0.5859375 C-83.35614845 0.56723432 -80.98964738 0.54766155 -78.62315369 0.5272522 C-72.38213066 0.47579071 -66.14108588 0.43624716 -59.89996338 0.39910889 C-53.54848768 0.3592057 -47.19710425 0.30801822 -40.84570312 0.2578125 C-31.57693952 0.18591761 -22.308163 0.11885718 -13.03930664 0.06005859 C-11.57343109 0.05074562 -11.57343109 0.05074562 -10.07794189 0.04124451 C-6.71854076 0.02046736 -3.35947374 0 0 0 Z " fill="#586676" transform="translate(1776,110)"/>
<path d="M0 0 C20.46 0 40.92 0 62 0 C62 0.66 62 1.32 62 2 C100.28 2.33 138.56 2.66 178 3 C178 3.33 178 3.66 178 4 C119.26 4 60.52 4 0 4 C0 2.68 0 1.36 0 0 Z " fill="#526071" transform="translate(135,111)"/>
<path d="M0 0 C18.15 0 36.3 0 55 0 C55 0.33 55 0.66 55 1 C53.02 1 51.04 1 49 1 C49 1.66 49 2.32 49 3 C96.52 3 144.04 3 193 3 C193 3.33 193 3.66 193 4 C127.99 4 62.98 4 -4 4 C-4 3.67 -4 3.34 -4 3 C-0.37 3 3.26 3 7 3 C7 2.34 7 1.68 7 1 C4.69 1 2.38 1 0 1 C0 0.67 0 0.34 0 0 Z " fill="#4B6880" transform="translate(375,111)"/>
<path d="M0 0 C15.84 0 31.68 0 48 0 C48 0.33 48 0.66 48 1 C43.38 1.33 38.76 1.66 34 2 C48.85 2.33 63.7 2.66 79 3 C79 3.33 79 3.66 79 4 C70.49830701 4.04641248 61.99666728 4.08191439 53.49487877 4.10362434 C49.54683317 4.11404587 45.59887449 4.12817517 41.65087891 4.15087891 C37.83833592 4.17266561 34.02587636 4.18458089 30.21327591 4.18975449 C28.76127434 4.1934398 27.30927715 4.20063628 25.85731125 4.21146011 C23.81802377 4.22605275 21.77907768 4.22797474 19.73974609 4.22705078 C18.58058685 4.231492 17.42142761 4.23593323 16.22714233 4.24050903 C12.84124328 3.98816835 10.1789362 3.15492946 7 2 C4.67305036 1.62468554 2.34023315 1.28082798 0 1 C0 0.67 0 0.34 0 0 Z " fill="#536B82" transform="translate(1519,111)"/>
<path d="M0 0 C0 0.33 0 0.66 0 1 C-17.16 1 -34.32 1 -52 1 C-52.33 0.34 -52.66 -0.32 -53 -1 C-48.37788404 -1.28955608 -43.75549684 -1.57415613 -39.1328125 -1.85449219 C-37.56567485 -1.95019035 -35.99861419 -2.04715943 -34.43164062 -2.14550781 C-7.07595345 -3.85961097 -7.07595345 -3.85961097 0 0 Z " fill="#667C91" transform="translate(1605,113)"/>
<path d="M0 0 C16.335 0.495 16.335 0.495 33 1 C32.67 1.99 32.34 2.98 32 4 C21.44 4 10.88 4 0 4 C0 2.68 0 1.36 0 0 Z " fill="#667B91" transform="translate(305,110)"/>
<path d="M0 0 C29.04 0 58.08 0 88 0 C88 0.33 88 0.66 88 1 C58.96 1 29.92 1 0 1 C0 0.67 0 0.34 0 0 Z " fill="#003A67" transform="translate(1015,74)"/>
<path d="M0 0 C0.66 0 1.32 0 2 0 C1.42897488 3.74391122 -0.0946799 5.46934589 -2.74609375 8.109375 C-3.50083984 8.86347656 -4.25558594 9.61757812 -5.03320312 10.39453125 C-5.82662109 11.17183594 -6.62003906 11.94914062 -7.4375 12.75 C-8.22705078 13.54277344 -9.01660156 14.33554688 -9.83007812 15.15234375 C-15.73309085 21 -15.73309085 21 -18 21 C-17.67 19.68 -17.34 18.36 -17 17 C-16.01 17 -15.02 17 -14 17 C-13.8453125 16.1028125 -13.8453125 16.1028125 -13.6875 15.1875 C-12.8967321 12.67142032 -11.91571363 11.76245654 -10 10 C-9.34 9.01 -8.68 8.02 -8 7 C-7.34 7 -6.68 7 -6 7 C-6 6.34 -6 5.68 -6 5 C-3 3 -3 3 0 3 C0 2.01 0 1.02 0 0 Z " fill="#4E7392" transform="translate(647,92)"/>
<path d="M0 0 C4.29 0 8.58 0 13 0 C13 0.33 13 0.66 13 1 C11.02 1 9.04 1 7 1 C7 1.99 7 2.98 7 4 C-1.91 4 -10.82 4 -20 4 C-20 3.67 -20 3.34 -20 3 C-13.73 2.67 -7.46 2.34 -1 2 C-0.67 1.34 -0.34 0.68 0 0 Z " fill="#51687E" transform="translate(338,111)"/>
<path d="M0 0 C0 0.66 0 1.32 0 2 C-7.92 2.495 -7.92 2.495 -16 3 C-16.33 2.01 -16.66 1.02 -17 0 C-11.31147144 -1.13770571 -5.58384613 -1.86128204 0 0 Z " fill="#627C92" transform="translate(362,112)"/>
<path d="M0 0 C2.64 0 5.28 0 8 0 C8 0.66 8 1.32 8 2 C8.99 2.66 9.98 3.32 11 4 C4.07 4 -2.86 4 -10 4 C-10 3.67 -10 3.34 -10 3 C-5.71 3 -1.42 3 3 3 C3 2.34 3 1.68 3 1 C2.01 0.67 1.02 0.34 0 0 Z " fill="#506A7F" transform="translate(359,111)"/>
<path d="M0 0 C0.66 0.33 1.32 0.66 2 1 C0.4169423 5.2742558 -2.50568404 7.26531794 -6 10 C-5.58578031 5.16743695 -3.53586014 3.17320782 0 0 Z " fill="#4E7391" transform="translate(627,112)"/>
<path d="M0 0 C1.98 0 3.96 0 6 0 C6.33 0.66 6.66 1.32 7 2 C6.67 2.99 6.34 3.98 6 5 C4.02 5 2.04 5 0 5 C0 3.35 0 1.7 0 0 Z " fill="#2D5474" transform="translate(1358,125)"/>
<path d="M0 0 C1.65 0 3.3 0 5 0 C3.375 5.75 3.375 5.75 0 8 C0 7.34 0 6.68 0 6 C-0.66 5.67 -1.32 5.34 -2 5 C-1.34 4.01 -0.68 3.02 0 2 C0 1.34 0 0.68 0 0 Z " fill="#5B7C92" transform="translate(1330,111)"/>
<path d="M0 0 C0.66 0 1.32 0 2 0 C2 0.99 2 1.98 2 3 C2.99 3.33 3.98 3.66 5 4 C4.67 5.65 4.34 7.3 4 9 C3.34 8.67 2.68 8.34 2 8 C2 7.34 2 6.68 2 6 C1.0409375 5.566875 1.0409375 5.566875 0.0625 5.125 C-2 4 -2 4 -3 2 C-2.34 2 -1.68 2 -1 2 C-0.67 1.34 -0.34 0.68 0 0 Z " fill="#52768D" transform="translate(1266,102)"/>
<path d="M0 0 C0.99 0.33 1.98 0.66 3 1 C1.95125002 3.62187494 1.35068687 4.79371361 -1.125 6.25 C-1.74375 6.4975 -2.3625 6.745 -3 7 C-3.33 6.34 -3.66 5.68 -4 5 C-2.52830189 1.26415094 -2.52830189 1.26415094 0 0 Z " fill="#64788D" transform="translate(1836,48)"/>
<path d="M0 0 C1.32 0.33 2.64 0.66 4 1 C1.69 3.31 -0.62 5.62 -3 8 C-3.33 6.68 -3.66 5.36 -4 4 C-2.3125 1.6875 -2.3125 1.6875 0 0 Z " fill="#4B7394" transform="translate(654,85)"/>
<path d="M0 0 C0 0.33 0 0.66 0 1 C-0.60328125 1.03738281 -1.2065625 1.07476562 -1.828125 1.11328125 C-7.99367772 1.56253341 -7.99367772 1.56253341 -13 5 C-13.66 4.67 -14.32 4.34 -15 4 C-10.35798028 -1.32972635 -6.71753323 -1.40599533 0 0 Z " fill="#3A6586" transform="translate(662,68)"/>
<path d="M0 0 C0 0.66 0 1.32 0 2 C-0.99 2.66 -1.98 3.32 -3 4 C-3 4.99 -3 5.98 -3 7 C-3.99 7 -4.98 7 -6 7 C-5.625 4.0625 -5.625 4.0625 -5 1 C-3 0 -3 0 0 0 Z " fill="#5B7086" transform="translate(46,24)"/>
<path d="M0 0 C0.99 0.33 1.98 0.66 3 1 C2.67 2.32 2.34 3.64 2 5 C0.68 5 -0.64 5 -2 5 C-2 3.68 -2 2.36 -2 1 C-1.34 0.67 -0.68 0.34 0 0 Z " fill="#2D516D" transform="translate(1478,117)"/>
<path d="M0 0 C0 0.66 0 1.32 0 2 C-0.99 2.495 -0.99 2.495 -2 3 C-1.67 4.32 -1.34 5.64 -1 7 C-2.32 6.67 -3.64 6.34 -5 6 C-5 4.35 -5 2.7 -5 1 C-3 0 -3 0 0 0 Z " fill="#667D8F" transform="translate(1859,26)"/>
<path d="M0 0 C0.99 0.33 1.98 0.66 3 1 C3 1.66 3 2.32 3 3 C2.236875 3.28875 1.47375 3.5775 0.6875 3.875 C-2.15029308 4.96269013 -2.15029308 4.96269013 -5 7 C-5 6.01 -5 5.02 -5 4 C-4.34 4 -3.68 4 -3 4 C-3 3.34 -3 2.68 -3 2 C-2.01 2 -1.02 2 0 2 C0 1.34 0 0.68 0 0 Z " fill="#6286A2" transform="translate(655,82)"/>
<path d="M0 0 C1.5 1.375 1.5 1.375 3 3 C3 4.66666667 3 6.33333333 3 8 C0.9375 6.25 0.9375 6.25 -1 4 C-0.75 1.75 -0.75 1.75 0 0 Z " fill="#586A7C" transform="translate(85,67)"/>
<path d="M0 0 C2.35953094 2.35953094 2.49141413 3.77895617 3 7 C1.02 5.35 -0.96 3.7 -3 2 C-2.01 1.34 -1.02 0.68 0 0 Z " fill="#486E8C" transform="translate(1247,84)"/>
<path d="M0 0 C1.32 0.33 2.64 0.66 4 1 C2.68 1.99 1.36 2.98 0 4 C0 2.68 0 1.36 0 0 Z " fill="#748B9C" transform="translate(1830,0)"/>
<path d="M0 0 C0.99 0.33 1.98 0.66 3 1 C2.34 1.66 1.68 2.32 1 3 C0.67 2.01 0.34 1.02 0 0 Z " fill="#18486E" transform="translate(1364,49)"/>
<path d="M0 0 C0.99 0.33 1.98 0.66 3 1 C2.01 1.66 1.02 2.32 0 3 C0 2.01 0 1.02 0 0 Z " fill="#6E7F8E" transform="translate(1788,43)"/>
<path d="M0 0 C0.66 0 1.32 0 2 0 C2 0.66 2 1.32 2 2 C1.01 1.67 0.02 1.34 -1 1 C-0.67 0.67 -0.34 0.34 0 0 Z " fill="#1C4D6F" transform="translate(1245,90)"/>
<path d="M0 0 C0.66 0 1.32 0 2 0 C2 0.66 2 1.32 2 2 C1.34 2 0.68 2 0 2 C0 1.34 0 0.68 0 0 Z " fill="#1D4B6F" transform="translate(1256,132)"/>
<path d="M0 0 C0.66 0 1.32 0 2 0 C2 0.66 2 1.32 2 2 C1.34 2 0.68 2 0 2 C0 1.34 0 0.68 0 0 Z " fill="#1F4D71" transform="translate(1263,132)"/>
<path d="M0 0 C0.66 0 1.32 0 2 0 C2 0.66 2 1.32 2 2 C1.34 2 0.68 2 0 2 C0 1.34 0 0.68 0 0 Z " fill="#1C4B70" transform="translate(1294,130)"/>
<path d="M0 0 C0 3 0 3 0 3 Z " fill="#1A496E" transform="translate(1287,130)"/>
<path d="M0 0 C0.66 0 1.32 0 2 0 C2 0.66 2 1.32 2 2 C1.34 2 0.68 2 0 2 C0 1.34 0 0.68 0 0 Z " fill="#1D496F" transform="translate(1317,129)"/>
<path d="M0 0 C0.66 0 1.32 0 2 0 C2 0.66 2 1.32 2 2 C1.34 2 0.68 2 0 2 C0 1.34 0 0.68 0 0 Z " fill="#1D486B" transform="translate(1340,128)"/>
<path d="M0 0 C0.66 0 1.32 0 2 0 C2 0.66 2 1.32 2 2 C1.34 2 0.68 2 0 2 C0 1.34 0 0.68 0 0 Z " fill="#204B6D" transform="translate(1371,126)"/>
<path d="M0 0 C0.66 0.33 1.32 0.66 2 1 C1.01 1 0.02 1 -1 1 C-0.67 0.67 -0.34 0.34 0 0 Z " fill="#1B496D" transform="translate(1363,80)"/>
<path d="M0 0 C0.66 0 1.32 0 2 0 C2 0.66 2 1.32 2 2 C1.34 2 0.68 2 0 2 C0 1.34 0 0.68 0 0 Z " fill="#1E4C70" transform="translate(1364,57)"/>
<path d="M0 0 C0.66 0.66 1.32 1.32 2 2 C1.34 2 0.68 2 0 2 C0 1.34 0 0.68 0 0 Z " fill="#214F73" transform="translate(1279,131)"/>
<path d="M0 0 C0.66 0.66 1.32 1.32 2 2 C1.34 2 0.68 2 0 2 C0 1.34 0 0.68 0 0 Z " fill="#214F70" transform="translate(1271,131)"/>
<path d="M0 0 C0.99 0.495 0.99 0.495 2 1 C1.01 1.495 1.01 1.495 0 2 C0 1.34 0 0.68 0 0 Z " fill="#1C4B70" transform="translate(1302,130)"/>
<path d="M0 0 C0.33 0.66 0.66 1.32 1 2 C0.34 1.67 -0.32 1.34 -1 1 C-0.67 0.67 -0.34 0.34 0 0 Z " fill="#1F4C73" transform="translate(1310,129)"/>
<path d="M0 0 C0.66 0 1.32 0 2 0 C1.67 0.66 1.34 1.32 1 2 C0.67 1.34 0.34 0.68 0 0 Z " fill="#204A6D" transform="translate(1332,128)"/>
<path d="M0 0 C3 1 3 1 3 1 Z " fill="#1D486C" transform="translate(1360,119)"/>
<path d="M0 0 C0.33 0.66 0.66 1.32 1 2 C0.34 1.67 -0.32 1.34 -1 1 C-0.67 0.67 -0.34 0.34 0 0 Z " fill="#204C6F" transform="translate(1362,103)"/>
<path d="M0 0 C3 1 3 1 3 1 Z " fill="#1D4B6F" transform="translate(1362,88)"/>
<path d="M0 0 C3 1 3 1 3 1 Z " fill="#023D69" transform="translate(1008,74)"/>
<path d="M0 0 C0.33 0.66 0.66 1.32 1 2 C0.34 1.67 -0.32 1.34 -1 1 C-0.67 0.67 -0.34 0.34 0 0 Z " fill="#1E4C70" transform="translate(1364,72)"/>
<path d="M0 0 C0.99 0.495 0.99 0.495 2 1 C1.01 1.495 1.01 1.495 0 2 C0 1.34 0 0.68 0 0 Z " fill="#204E72" transform="translate(1364,65)"/>
<path d="M0 0 C2 1 2 1 2 1 Z " fill="#22486C" transform="translate(1360,134)"/>
<path d="M0 0 C2 1 2 1 2 1 Z " fill="#265174" transform="translate(1325,129)"/>
<path d="M0 0 C2 1 2 1 2 1 Z " fill="#234E71" transform="translate(1348,128)"/>
<path d="M0 0 C2 1 2 1 2 1 Z " fill="#204B6D" transform="translate(1378,126)"/>
<path d="M0 0 C2 1 2 1 2 1 Z " fill="#284C6C" transform="translate(1394,125)"/>
<path d="M0 0 C2 1 2 1 2 1 Z " fill="#284C6C" transform="translate(1386,125)"/>
<path d="" fill="#3A4D5E" transform="translate(0,0)"/>
<path d="M0 0 C2 1 2 1 2 1 Z " fill="#245073" transform="translate(1362,96)"/>
<path d="" fill="#2A4D6B" transform="translate(0,0)"/>
<path d="M0 0 C2 1 2 1 2 1 Z " fill="#093C69" transform="translate(1183,86)"/>
<path d="M0 0 C2 1 2 1 2 1 Z " fill="#053B68" transform="translate(717,86)"/>
<path d="M0 0 C2 1 2 1 2 1 Z " fill="#043868" transform="translate(713,86)"/>
<path d="M0 0 C2 1 2 1 2 1 Z " fill="#3B5065" transform="translate(74,85)"/>
<path d="" fill="#254969" transform="translate(0,0)"/>
<path d="M0 0 C2 1 2 1 2 1 Z " fill="#003B67" transform="translate(1012,74)"/>
<path d="" fill="#284C6C" transform="translate(0,0)"/>
<path d="" fill="#264B68" transform="translate(0,0)"/>
<path d="" fill="#244868" transform="translate(0,0)"/>
<path d="" fill="#274B6B" transform="translate(0,0)"/>
<path d="" fill="#205B87" transform="translate(0,0)"/>
<path d="" fill="#235D8B" transform="translate(0,0)"/>
<path d="M0 0 C2 1 2 1 2 1 Z " fill="#1E5985" transform="translate(1215,14)"/>
<path d="" fill="#38576E" transform="translate(0,0)"/>
<path d="" fill="#2D4F6B" transform="translate(0,0)"/>
<path d="" fill="#274E6D" transform="translate(0,0)"/>
<path d="" fill="#294D6D" transform="translate(0,0)"/>
<path d="" fill="#2A4D6D" transform="translate(0,0)"/>
<path d="" fill="#2A4E6E" transform="translate(0,0)"/>
<path d="" fill="#2A4D6B" transform="translate(0,0)"/>
<path d="" fill="#294C6A" transform="translate(0,0)"/>
<path d="" fill="#2D526F" transform="translate(0,0)"/>
<path d="" fill="#264967" transform="translate(0,0)"/>
<path d="" fill="#304F6B" transform="translate(0,0)"/>
<path d="" fill="#3A4B5B" transform="translate(0,0)"/>
<path d="" fill="#2A4D6B" transform="translate(0,0)"/>
<path d="" fill="#345775" transform="translate(0,0)"/>
<path d="" fill="#2C4F6D" transform="translate(0,0)"/>
<path d="" fill="#3C4C63" transform="translate(0,0)"/>
<path d="" fill="#033967" transform="translate(0,0)"/>
<path d="" fill="#033968" transform="translate(0,0)"/>
<path d="" fill="#3E5368" transform="translate(0,0)"/>
<path d="" fill="#0B3C67" transform="translate(0,0)"/>
<path d="" fill="#244767" transform="translate(0,0)"/>
<path d="" fill="#3A4F64" transform="translate(0,0)"/>
<path d="" fill="#264969" transform="translate(0,0)"/>
<path d="" fill="#063A69" transform="translate(0,0)"/>
<path d="" fill="#2B4F6F" transform="translate(0,0)"/>
<path d="" fill="#314F69" transform="translate(0,0)"/>
<path d="" fill="#234767" transform="translate(0,0)"/>
<path d="" fill="#254969" transform="translate(0,0)"/>
<path d="" fill="#264A6A" transform="translate(0,0)"/>
<path d="" fill="#2D4C68" transform="translate(0,0)"/>
<path d="" fill="#354F68" transform="translate(0,0)"/>
<path d="" fill="#205B87" transform="translate(0,0)"/>
<path d="" fill="#26618D" transform="translate(0,0)"/>
</svg>
